<svg width="1475" height="318" viewBox="0 0 1475 318" fill="none" xmlns="http://www.w3.org/2000/svg">
<g clip-path="url(#clip0_485_884)">
<path d="M16.3347 202.189C18.1919 202.841 20.0816 202.189 22.0039 202.906C23.2745 203.373 23.2745 204.795 23.7089 204.795C28.5092 204.795 27.7055 205.664 27.9879 205.696C28.8567 205.696 30.16 204.61 31.3003 204.741C31.8542 204.806 31.7673 206.51 32.3538 206.565C46.3311 208.204 61.1663 207.064 75.3934 205.978C135.777 201.267 190.774 142.541 195.151 81.4927C197.16 53.2755 191.621 27.0451 178.817 2.00894C180.304 0.67354 213.798 5.63516 218.533 6.53629C247.508 12.0842 285.617 23.6686 296.087 54.4589C301.104 69.2677 303.613 99.5586 301.723 115.041C295.251 168.435 284.401 221.406 260.324 270.404C252.211 286.939 231.479 325.568 208.27 315.807C185.061 306.047 183.356 248.994 160.68 233.631C131.683 214.023 117.238 280.186 109.31 296.449C78.228 360.169 36.5024 265.008 26.6412 237.876C25.0013 233.349 15.1727 204.361 16.3565 202.189H16.3239H16.3347Z" fill="#7A7A7A"/>
<path d="M135.494 158.044C108.843 182.548 67.8555 192.515 32.6245 185.458C28.5628 184.655 10.8169 179.878 9.04668 177.218C8.5471 176.479 8.39506 175.546 8.11269 174.71C5.10437 165.633 3.0952 148.816 1.82454 138.903C0.923131 131.998 0.119464 124.963 0 117.96C26.7056 145.874 67.823 151.845 99.9805 128.991C137.688 102.196 141.782 45.7943 107.452 14.4177C104.879 12.0617 98.9596 8.75037 97.1677 6.67669C96.2337 5.591 96.0165 5.22186 96.2663 3.70189L142.216 0.205951C152.936 -0.130614 153.218 -1.03174 158.855 7.69725C189.687 55.5547 176.144 120.696 135.526 158.044H135.494Z" fill="#7A7A7A"/>
<path d="M100.197 101.307C55.8325 160.922 -33.1573 89.9936 14.6283 33.3746C59.5902 -19.933 141.999 45.111 100.208 101.307H100.197Z" fill="#7A7A7A"/>
<path d="M522.514 101.545C521.993 102.283 506.615 106.311 505.127 105.974C500.359 95.009 494.191 84.5429 482.016 80.7647C443.907 68.9632 414.812 109.633 435.946 142.28C449.641 163.462 485.122 166.1 499.252 144.017C500.707 141.726 504.019 132.802 505.42 132.064L522.525 135.191C510.101 192.428 427.378 190.67 412.314 134.941C393.167 64.0667 493.398 32.2558 520.017 92.5662C520.755 94.2381 523.427 100.22 522.493 101.523L522.525 101.556L522.514 101.545Z" fill="#7A7A7A"/>
<path d="M848.378 136.027V174.254C848.378 174.254 847.172 175.557 847.075 175.557H831.61C831.295 175.557 830.219 174.688 829.6 174.569C829.231 143.876 829.633 113.054 829.503 82.2958C829.503 80.0702 828.547 77.8988 828.547 75.4777C828.547 73.4909 829.481 62.9922 830.773 62.9922H886.639C889.213 62.9922 898.477 66.119 901.138 67.3893C927.192 79.8096 926.887 118.808 901.138 131.63C898.716 132.835 889.734 136.027 887.508 136.027H848.378ZM848.378 118.829H884.043C884.543 118.829 890.147 116.843 891.081 116.408C904.037 110.155 905.493 91.7197 893.372 83.729C892.037 82.8604 886.096 80.1353 884.912 80.1353H848.378V118.819V118.829Z" fill="#7A7A7A"/>
<path d="M1076.58 92.1977C1077.7 92.5342 1077.78 94.1519 1077.91 95.1725C1079.8 111.306 1078.53 140.12 1077.91 157.122C1077.7 162.724 1076.58 168.956 1076.64 174.743C1075.71 176.078 1061.12 175.948 1059.47 174.776C1058.02 173.722 1059.84 168.555 1058.54 166.937C1033.87 187.782 996.449 175.916 989.564 143.92C980.582 101.98 1025.23 73.2631 1058.94 99.9061C1058.94 98.4838 1058.44 92.1651 1060.24 92.1651C1063.65 92.1651 1074.31 91.4485 1076.58 92.1651V92.1977ZM1026.93 106.138C999.295 110.817 999.642 156.406 1026.93 160.716C1070.13 167.534 1068.89 99.0158 1026.93 106.138Z" fill="#7A7A7A"/>
<path d="M776.146 137.732H709.963C711.114 161.335 739.926 169.542 755.044 151.422C756.217 150.032 756.217 147.307 758.454 147.21C761.68 148.784 770.292 148.665 772.736 150.152C774.223 151.086 771.834 156.004 771.182 157.209C761.669 174.862 737.722 181.148 719.465 175.047C679.803 161.758 683.029 99.6888 723.679 90.8296C755.066 83.9788 777.59 106.996 776.135 137.699V137.732H776.146ZM757.249 124.844C752.752 99.754 714.774 99.4717 710.831 124.844H757.249Z" fill="#7A7A7A"/>
<path d="M1408.78 137.731C1409 163.875 1445.44 169.879 1456.62 147.112C1459.05 148.165 1472.06 149.37 1472.39 151.042C1459.47 186.729 1406.71 185.828 1393.5 150.825C1382.57 121.772 1400.35 90.395 1432.36 89.559C1458.01 88.875 1474.81 110.22 1475 134.746C1475 135.701 1474.53 137.72 1473.66 137.72H1408.78V137.731ZM1456.06 124.844C1451.19 99.5039 1413.74 99.6342 1408.77 124.844H1456.06Z" fill="#7A7A7A"/>
<path d="M571.408 89.8417C624.884 83.9572 640.719 161.954 587.742 175.764C526.207 191.843 507.56 96.877 571.408 89.8417ZM571.375 106.16C538.838 110.926 542.932 164.918 579.651 160.824C613.481 157.046 608.93 100.644 571.375 106.16Z" fill="#7A7A7A"/>
<path d="M1377.73 119.578C1377.3 120.262 1363.02 124.193 1362.08 123.889C1360.81 123.487 1358.86 118.123 1357.56 116.332C1346 100.286 1320.59 104.997 1313.81 123.15C1301.29 156.6 1348.05 176.338 1362.08 143.713C1364.13 143.214 1377.42 146.59 1378.35 148.045C1369.19 182.581 1321.8 187.38 1302 159.011C1271.77 115.616 1329.43 66.2707 1367.54 100.372C1370.66 103.163 1380.15 115.833 1377.73 119.611V119.578Z" fill="#7A7A7A"/>
<path d="M1174.05 119.611L1157.48 124.041C1148.52 96.757 1109.73 102.978 1107.9 131.228C1106.23 157.404 1137.33 171.312 1153.94 150.618C1155.3 148.914 1157 144.267 1158.37 143.833C1161.34 142.877 1170.45 146.808 1174.05 147.242C1167.83 179.27 1125.28 186.359 1103.19 165.243C1085.53 148.36 1085.65 116.983 1104.05 100.752C1126.83 80.6779 1167.33 88.4514 1174.05 119.611Z" fill="#7A7A7A"/>
<path d="M1243.76 92.1976V106.822H1215.42V147.644C1215.42 149.468 1218.26 155.385 1219.73 156.84C1226.57 163.777 1236.21 158.175 1243.71 156.742C1244.14 161.291 1250.49 169.499 1246.13 172.322C1238.54 177.218 1225.68 178.358 1217.13 176.013C1187.67 167.871 1201.67 128.34 1197.37 106.822H1180.17V92.1976H1196.93C1196.93 92.1976 1198.23 90.9925 1198.23 90.8948V67.6935C1198.23 67.6935 1199.44 66.3906 1199.54 66.3906H1214.17C1214.17 66.3906 1215.47 67.5957 1215.47 67.6935V90.8948C1215.47 90.8948 1216.68 92.1976 1216.77 92.1976H1243.85H1243.78H1243.76Z" fill="#7A7A7A"/>
<path d="M650.666 105.942C652.121 106.257 652.404 105.475 653.207 104.639C658.442 99.3083 663.373 94.2598 670.899 92.2513C673.722 91.513 686.386 89.4936 687.472 92.7507C687.808 93.7387 686.82 107.929 686.353 108.58C682.259 110.317 677.524 108.83 672.941 109.753C664.144 111.522 658.257 118.71 654.076 125.951C652.588 128.492 650.666 134.713 650.666 138.187V174.276C650.666 174.276 649.46 175.578 649.363 175.578H632.605C632.888 174.742 631.736 173.722 631.736 173.44V93.5215C631.736 90.1776 647.875 93.1524 650.633 92.2187V105.974L650.666 105.942Z" fill="#7A7A7A"/>
<path d="M948.912 174.678C948.076 175.981 933.36 175.916 930.852 174.678V93.4679C930.852 93.4679 932.057 92.1651 932.155 92.1651H947.62C947.62 92.1651 948.923 93.3702 948.923 93.4679V107.658C954.527 101.654 960.576 95.205 968.841 92.7948C971.6 91.9914 984.056 90.0697 985.512 92.1434C987.119 94.4667 984.361 105.117 984.643 108.592C977.334 109.981 971.567 108.809 964.345 112.37C956.319 116.333 948.912 130.306 948.912 139.035V174.689V174.678Z" fill="#7A7A7A"/>
<path d="M1279.85 92.1973H1262.66V174.677H1279.85V92.1973Z" fill="#7A7A7A"/>
<path d="M1090.76 233.967V221.948H1098.5C1098.79 224.022 1097.57 234.835 1099.77 234.835H1113.1C1113.25 236.041 1113.32 240.839 1111.8 240.839H1098.47V265.343C1098.47 269.437 1105.07 270.49 1108.32 270.023C1111.36 269.589 1112.2 266.494 1114.02 270.425C1116.16 275.006 1112.32 276.309 1108.29 276.863C1093.36 278.904 1091.5 270.045 1090.72 257.624C1090.56 255.149 1091.67 240.839 1089.48 240.839H1069.71C1069.71 240.839 1068.41 242.044 1068.41 242.142V276.092H1061.53V240.872C1061.53 240.318 1051.59 243.163 1053.91 236.258C1054.81 233.565 1059.86 235.921 1061.17 234.054C1062.81 231.73 1059.89 223.023 1066.25 217.671C1069.74 214.728 1082.27 212.774 1082.23 218.105C1082.23 223.87 1075.73 221.199 1072.44 222.165C1068.75 223.219 1066.83 232.794 1069.18 234.521C1070.05 235.172 1087.74 233.098 1090.72 234.021L1090.75 233.956L1090.76 233.967Z" fill="#7A7A7A"/>
<path d="M442.484 218.724C481.245 217.888 481.126 277.884 443.103 277.851C404.897 277.819 404.158 219.56 442.484 218.724ZM438.151 226.433C415.16 230.363 416.648 266.886 438.89 269.98C473.588 274.779 472.785 220.516 438.151 226.433Z" fill="#7A7A7A"/>
<path d="M686.766 276.059L685.865 223.154C685.68 222.285 686.484 220.179 687.201 220.179H712.983C725.592 220.179 736.561 236.312 736.691 248.114C736.822 259.915 725.071 276.027 712.983 276.027H686.766V276.059ZM694.944 226.215C694.662 226.649 693.641 227.268 693.641 227.518V268.774C693.641 271.901 711.701 269.057 714.493 268.156C732.184 262.456 734.074 238.853 718.305 229.505C716.35 228.354 709.779 226.248 707.803 226.248H694.911L694.944 226.215Z" fill="#7A7A7A"/>
<path d="M1001.37 235.694C999.544 235.324 994.95 236.312 993.777 235.574C993.462 235.39 992.006 230.927 990.247 229.223C983.557 222.839 965.029 225.228 969.113 238.332C970.818 243.782 987.304 244.835 993.027 247.072C997.241 248.744 1001.42 252.001 1002.19 256.8C1005.76 279.415 973.033 284.083 961.847 268.786C960.696 267.201 956.678 259.644 959.838 258.873C968.483 256.734 966.81 263.824 971.741 267.515C978.464 272.499 995.037 271.261 995.351 260.979C995.634 251.404 978.279 251.784 971.708 249.515C961.891 246.138 957.275 237.594 962.227 227.92C969.699 213.393 1001.42 217.389 1001.39 235.694H1001.36H1001.37Z" fill="#7A7A7A"/>
<path d="M1131.16 264.041C1132.4 265.279 1132.65 263.704 1133.08 262.955C1136.98 255.833 1139 242.794 1142.41 234.923C1143.87 234.923 1147.49 234.152 1148.42 235.357C1151.3 239.048 1155.02 255.952 1157.75 261.935C1158.15 262.771 1158.3 263.943 1159.52 264.041C1161.19 260.545 1167.83 235.759 1169.1 234.955C1170.15 234.271 1174.21 235.172 1175.85 234.836L1162.74 275.875C1160.14 277.297 1157.63 277.731 1155.65 275.224C1154.28 273.486 1146.69 246.322 1144.9 247.745C1142.83 251.675 1136.62 275.31 1134.58 276.548C1132.23 277.97 1129.2 277.069 1127.89 274.626C1125.1 269.361 1117.39 245.454 1116.05 239.189C1115.74 237.734 1115.5 236.345 1115.65 234.857C1117.57 235.042 1120.82 234.141 1122.13 235.693L1131.14 264.063L1131.17 264.03L1131.16 264.041Z" fill="#7A7A7A"/>
<path d="M904.234 239.103C903.181 232.784 906.124 235.14 911.109 234.792L911.609 275.213C910.772 276.364 904.517 276.331 904.234 276.049C903.735 275.549 904.973 271.717 903.8 270.903C893.548 281.499 874.271 278.524 869.188 264.269C863.052 247.083 875.357 230.504 893.971 234.347C897.718 235.118 900.661 238.039 904.224 239.114V239.081L904.234 239.103ZM885.956 240.188C868.667 243.663 871.208 272.618 890.789 270.848C910.37 269.079 906.993 235.943 885.956 240.188Z" fill="#7A7A7A"/>
<path d="M1221.39 276.06C1216.56 276.31 1213.68 276.831 1214.51 270.914C1203.95 281.543 1184.87 278.817 1179.72 264.009C1171.66 240.775 1196.11 224.24 1214.51 239.971C1213.65 232.914 1215.47 234.955 1221.39 234.825V276.082V276.049V276.06ZM1189.05 266.299C1205.35 282.563 1226.04 254.161 1207.61 242.175C1192.76 232.513 1176.47 253.792 1189.05 266.299Z" fill="#7A7A7A"/>
<path d="M659.279 257.169H624.884C624.385 267.516 636.32 273.737 645.269 269.372C650.254 266.951 650.504 259.492 657.476 263.271C657.91 269.34 650.102 275.072 644.715 276.527C616.956 284.116 606.91 244.651 629.467 235.52C646.105 228.8 659.463 240.134 659.279 257.169ZM651.535 252.023C651.286 236.009 625.536 235.694 624.884 252.023H651.535Z" fill="#7A7A7A"/>
<path d="M783.901 257.168H749.506C749.441 267.602 761.463 274.3 770.456 269.067C772.964 267.612 775.223 263.085 776.961 262.651C788.049 259.806 779.101 273.334 771.477 276.124C746.845 285.103 730.794 251.75 750.44 237.897C766.122 226.834 785.519 238.418 783.901 257.168ZM776.146 252.022C776.581 240.036 759.943 236.073 752.471 244.248C751.2 245.616 748.04 252.022 750.798 252.022H776.146Z" fill="#7A7A7A"/>
<path d="M1303.07 257.168H1268.68C1269.36 268.872 1282.44 274.919 1291.82 267.851C1295.7 264.942 1295.16 260.078 1302.17 263.172C1296.53 284.017 1264.28 281.173 1261.77 259.296C1257.99 226.53 1304.68 224.728 1303.04 257.157H1303.07V257.168ZM1296.18 252.022C1295.69 235.856 1268.83 235.856 1269.53 252.022H1296.18Z" fill="#7A7A7A"/>
<path d="M1013.71 270.609C994.126 249.981 1025.85 219.56 1046.11 240.383C1066.38 261.196 1033.79 291.737 1013.71 270.609ZM1026.93 240.188C1023.41 240.774 1019.78 243.597 1017.7 246.409C1005.8 262.705 1030.06 280.446 1042.12 264.812C1050.91 253.379 1040.85 237.832 1026.93 240.188Z" fill="#7A7A7A"/>
<path d="M799.355 276.059C796.694 275.745 792.165 277.395 791.611 273.921L792.6 234.955C798.204 232.784 799.822 234.217 799.789 239.971C807.044 231.296 824.116 231.177 829.221 242.359C829.557 243.076 831.176 247.842 831.176 248.157V274.8C831.176 276.624 823.432 276.624 823.432 274.8V248.157C823.432 247.907 821.325 244.379 820.858 243.847C816.894 239.298 807.848 239.732 803.666 243.847C802.33 245.15 799.355 250.817 799.355 252.424V276.059Z" fill="#7A7A7A"/>
<path d="M609.397 276.06H602.522V248.994C602.522 246.551 597.906 241.622 595.028 241.035C583.473 238.68 578.488 246.518 577.706 256.832C577.337 261.979 579.596 270.805 578.325 274.638C577.554 277.026 572.808 275.789 570.701 276.027V236.074C570.701 234.521 577.272 234.467 577.576 234.771C578.195 235.39 576.24 239.57 578.879 239.081C580.867 238.712 584.114 235.053 587.839 234.282C594.279 232.98 599.796 233.631 604.662 238.18C606.182 239.602 609.375 243.565 609.375 245.487V275.995L609.408 276.06H609.397Z" fill="#7A7A7A"/>
<path d="M481.341 234.836C481.808 234.097 487.325 233.75 488.096 234.955C488.813 236.073 487.51 238.918 488.65 239.971C496.307 232.447 510.089 230.808 517.028 239.971C517.832 241.024 520.004 244.618 520.004 245.573V276.081H513.13V249.872C513.13 249.536 511.359 245.812 510.925 245.193C505.408 237.083 492.082 240.644 489.454 249.406C489.237 250.122 488.183 255.507 488.183 255.876V276.07H481.309C482.395 270.522 479.886 237.007 481.309 234.814H481.341V234.836Z" fill="#7A7A7A"/>
<path d="M850.942 221.949V233.968C853.386 234.087 864.301 233.533 865.441 234.923C866.093 235.694 865.539 240.84 864.268 240.84H850.942V264.476C850.942 264.791 852.278 267.45 852.648 267.917C857.176 273.65 863.921 266.647 865.973 269.22C871.827 276.559 857.361 278.481 851.811 276.494C837.161 271.326 845.827 243.478 843.232 240.84C841.896 239.505 833.631 244.217 834.554 236.096C834.956 232.654 842.645 234.543 843.232 233.957C844.785 232.437 839.083 216.77 850.975 221.906L850.942 221.938V221.949Z" fill="#7A7A7A"/>
<path d="M930.884 215.934V276.081C930.884 276.483 923.141 277.938 923.141 275.647V215.934H930.884Z" fill="#7A7A7A"/>
<path d="M1270.22 56.2612C1282.12 55.208 1287.59 73.2088 1275.77 78.1922C1259.19 85.1949 1253.24 57.7811 1270.22 56.2612Z" fill="#7A7A7A"/>
<path d="M1234.31 234.836H1240.32V243.413C1245.59 238.397 1252.37 231.829 1260.12 235.39C1261.05 243.63 1255.9 240.72 1250.85 242.36C1247.14 243.565 1243.41 248.212 1242.27 251.838C1241.74 253.477 1240.32 259.742 1240.32 261.034V276.06H1234.31V234.803V234.836Z" fill="#7A7A7A"/>
<path d="M538.066 215.934V276.081H532.061V216.791C532.061 216.477 537.013 216.759 538.066 215.923V215.934Z" fill="#7A7A7A"/>
<path d="M550.957 234.836C552.38 234.836 558.7 234.337 558.7 236.139V274.79C558.7 276.614 550.957 276.614 550.957 274.79V234.836Z" fill="#7A7A7A"/>
<path d="M554.084 217.855C560.84 217.139 561.339 227.616 554.736 227.952C549.132 228.235 548.079 218.507 554.084 217.855Z" fill="#7A7A7A"/>
</g>
<defs>
<clipPath id="clip0_485_884">
<rect width="1475" height="318" fill="white"/>
</clipPath>
</defs>
</svg>
