<svg width="1424" height="423" viewBox="0 0 1424 423" fill="none" xmlns="http://www.w3.org/2000/svg">
<g clip-path="url(#clip0_485_933)">
<path d="M1223.07 0L1204.11 99.7342H1272.99L1295.71 246.196L1354.49 99.7342H1424C1394.31 158.337 1367.15 218.557 1336.19 276.508C1303.73 337.287 1261.52 408.481 1188.35 422.969L1173.86 368.128C1190.77 360.604 1206.75 354.2 1221.11 342.106C1228.48 335.919 1249.15 314.188 1249.36 304.923L1204.11 101.009L1162.39 320.685H1096.68L1157.35 0H1223.07Z" fill="#7A7A7A"/>
<path d="M253.808 0C241.436 80.7076 222.132 160.389 208.703 240.91C204.32 267.305 200.217 293.855 199.471 320.685H138.825L141.342 287.855C125.52 306.633 105.688 323.421 80.043 325.722C16.6919 331.38 -5.72031 276.259 1.21163 221.728C11.7494 139.031 86.5087 78.2205 170.376 98.4907L188.094 0H253.808ZM125.707 260.901C152.129 234.786 151.072 188.276 160.211 154.482C160.895 150.689 155.3 148.638 152.284 147.487C96.6423 126.222 54.8642 208.795 72.1163 254.092C81.7526 279.43 108.424 277.969 125.707 260.901ZM141.964 285.337V286.612C142.772 286.176 142.772 285.772 141.964 285.337Z" fill="#7A7A7A"/>
<path d="M923.563 320.685L925.46 277.751C907.617 313.348 866.336 336.821 826.858 321.991C772.118 301.441 778.925 223.656 798.633 180.1C836.837 95.6305 934.381 80.0859 1015.92 105.548C1003.89 177.022 982.19 247.377 984.241 320.685H923.595H923.563ZM920.797 144.316C876.594 148.451 848.276 206.681 852.97 246.693C856.202 274.362 881.288 281.171 901.462 263.823C931.428 238.081 932.671 183.831 942.494 148.234C942.619 146.741 941.841 145.84 940.443 145.404C935.873 144.005 925.708 143.85 920.797 144.316Z" fill="#7A7A7A"/>
<path d="M557.104 321.96C556.917 317.203 557.974 312.509 558.751 307.846C564.906 271.285 585.516 198.038 580.977 164.897C578.646 147.767 561.829 144.099 547.747 150.441C525.273 160.545 512.435 191.945 506.902 214.422C498.291 249.398 494.717 286.829 486.293 321.96H421.854L461.02 99.7653H519.149L515.357 135.114C536.681 108.408 566.429 91.3091 601.742 94.8532C645.261 99.2679 652.783 136.762 649.271 173.602C644.732 221.355 628.848 270.912 622.693 318.758C622.693 319.784 621.605 321.96 620.859 321.96H557.042H557.104Z" fill="#7A7A7A"/>
<path d="M290.458 236.092C293.598 282.321 348.09 278.964 381.133 269.233C384.832 268.145 399.97 261.305 401.027 261.398C401.773 261.461 402.986 263.45 402.923 264.476L406.498 309.12C351.478 333.246 256.14 340.645 233.231 269.917C212.28 205.22 250.297 123.424 315.419 101.32C361.705 85.5888 429.563 96.1902 434.381 154.825C440.661 231.211 345.292 237.708 290.489 236.092H290.458ZM296.768 188.121C314.363 188.308 364.378 188.587 371.372 168.628C375.662 156.41 369.227 145.156 356.483 142.98C327.263 138.005 302.83 160.98 296.768 188.121Z" fill="#7A7A7A"/>
<path d="M661.984 148.979L670.129 100.915C672.429 97.4955 696.893 101.972 699.317 98.5215L707.648 53.1934L774.45 37.8975L763.072 99.765H809.824L800.841 148.886L753.529 150.223L735.283 245.605C734.941 252.786 734.568 261.74 740.412 266.963C741.033 267.522 745.696 270.227 746.007 270.227H771.901L764.16 321.835C736.371 327.618 694.002 332.064 675.32 305.513C666.056 292.363 668.419 277.191 668.295 262.051L689.774 149.041H661.984V148.979Z" fill="#7A7A7A"/>
<path d="M1129.56 0L1068.92 320.685H1003.2L1063.85 0H1129.56Z" fill="#7A7A7A"/>
<path d="M141.965 285.337C142.773 285.772 142.773 286.176 141.965 286.612V285.337Z" fill="#FFFEFE"/>
</g>
<defs>
<clipPath id="clip0_485_933">
<rect width="1424" height="423" fill="white"/>
</clipPath>
</defs>
</svg>
