<svg width="1513" height="365" viewBox="0 0 1513 365" fill="none" xmlns="http://www.w3.org/2000/svg">
<g clip-path="url(#clip0_485_921)">
<path d="M1119.07 156.96C1134.52 149.27 1149.38 140.18 1165.67 134.21C1220.8 114.06 1282.88 118.24 1335.16 144.72C1339.31 146.83 1352.85 153.94 1354.27 157.41C1356.12 161.92 1355.73 185.29 1355.31 191.42C1354.92 197.16 1353.98 198.75 1347.78 196.71C1340.48 194.31 1325.16 182.66 1316.3 178.44C1252.24 147.81 1187.67 157.54 1129.97 195.9C1124.81 199.34 1113.81 210.24 1108.13 208.91C1075.91 135.38 1016.85 60.5098 934.811 42.0198C819.871 16.1198 725.991 105.49 684.681 203.92C682.671 207.68 679.361 207.33 675.981 205.54C670.791 202.78 660.761 192.53 655.111 188.31C551.851 110.95 433.441 80.0498 307.011 118.57C255.511 134.24 209.171 161.86 166.661 194.28C160.531 196.62 159.911 195.09 159.491 189.35C158.871 181.01 158.581 164.49 159.491 156.44C160.241 150.05 170.431 144.66 175.681 140.86C317.851 38.7398 498.341 38.3798 643.811 133.88C650.821 138.49 661.891 148.65 668.281 151.76C669.641 152.44 670.881 153.06 672.471 152.83C706.321 88.0298 763.141 27.8598 835.181 7.12977C876.201 -4.68023 936.431 -1.57023 976.021 14.5598C1039.56 40.4898 1088.69 96.7598 1119.03 156.99L1119.06 156.96H1119.07Z" fill="#7A7A7A"/>
<path d="M1030.09 233.22L1057.12 312.66L1084.28 234.97L1085.12 233.7C1086.81 232.56 1121.69 232.66 1126.01 233.15C1127.18 233.28 1128.35 233.15 1129.16 234.25L1155.9 311.29L1158.27 312.65L1185.27 233.21H1226.58C1227.42 233.21 1228.56 235.77 1228.24 236.88L1182.13 362.43C1181.32 363.5 1180.18 363.4 1179.01 363.53C1170.18 364.6 1144.32 364.57 1135.46 363.53C1134.29 363.4 1133.12 363.53 1132.31 362.43L1106.9 290.39L1081 362.98H1033.26L986.66 237.91C986.27 236.61 987.15 233.17 988.32 233.17H1030.15L1030.08 233.2L1030.09 233.22Z" fill="#7A7A7A"/>
<path d="M962.299 187.66V298.87H987.71V334.89H963.89C963.89 334.89 962.299 336.35 962.299 336.48V363.48H918.359C918.359 363.48 916.77 362.02 916.77 361.89V335.93H799.789C793.399 334.7 797.39 324.28 795.02 319.51C795.83 311.3 794.31 299.75 799.24 293.03L906.719 187.63H962.31V187.66H962.299ZM916.77 237.44L855.34 298.87H916.77V237.44Z" fill="#7A7A7A"/>
<path d="M1371.11 165.95C1371.73 162.12 1375.3 162.96 1378.25 164.13L1412.68 186.55C1413.3 187.07 1414.53 188.69 1414.53 189.24V233.18C1449.25 233.18 1493.9 229.32 1509.29 268.16C1513.25 278.15 1513.05 310.02 1512.02 321.67C1510.49 338.48 1487.29 363.47 1470.16 363.47H1372.71C1372.71 363.47 1371.12 362.01 1371.12 361.88V165.94L1371.11 165.95ZM1414.53 267.1V332.23C1414.53 332.98 1416.28 333.66 1417.19 333.82C1424.17 335.09 1448.99 332.62 1456.07 330.35C1478.01 323.31 1475.77 272.88 1448.67 268.43C1446.37 268.04 1439.03 267.1 1437.28 267.1H1414.5H1414.53Z" fill="#7A7A7A"/>
<path d="M141.519 170.72V361.89C141.519 361.89 140.059 363.48 139.929 363.48H40.3693C39.4893 363.48 28.1693 358.29 26.4193 357.31C13.0793 349.85 1.81927 333.91 0.619268 318.53C-0.390732 305.58 -0.740732 278.26 4.15927 266.9C20.3893 229.19 63.7693 233.12 98.0993 233.22V204.08C98.0993 201.45 103.489 196.49 105.499 194.54C109.589 190.61 132.109 171.82 135.939 170.98C137.789 170.56 139.669 170.72 141.519 170.72ZM73.2093 267.1C66.4293 268.69 61.1393 268.17 55.0093 272.19C40.8893 281.41 38.4893 309.96 47.8693 323.17C56.6293 335.47 82.9793 332.68 96.5093 332.78C97.3893 332.81 99.1693 331.77 99.1693 331.19V268.69C99.1693 268.69 97.7093 267.1 97.5793 267.1H73.2093Z" fill="#7A7A7A"/>
<path d="M586.881 363.48C558.781 358.81 555.211 306.01 577.141 292.32C599.081 278.63 639.611 284.56 664.721 283.01C665.011 267.73 646.841 267.04 635.421 266.46C616.831 265.52 593.041 268.21 575.191 266.1C574.121 265.97 571.521 265.61 571.521 264.45V234.27C573.471 233.78 575.251 233.33 577.301 233.17C600.081 231.39 658.851 230.9 679.291 237.19C702.951 244.46 709.081 263.93 710.311 286.68C711.351 305.79 712.451 341.62 710.311 359.86C710.181 360.93 709.821 363.53 708.661 363.53H586.871V363.5L586.881 363.48ZM665.761 314.77H620.751C619.911 314.77 613.511 316.46 612.411 317.01C607.701 319.38 605.761 325.51 608.521 330.18C609.331 331.58 615.301 334.89 616.541 334.89H664.211C664.211 334.89 665.801 333.43 665.801 333.3V314.77H665.771H665.761Z" fill="#7A7A7A"/>
<path d="M1355.24 263.4C1355.14 263.98 1354.04 265.77 1353.46 266.13C1348.98 268.92 1305.04 266.32 1295.37 267.07C1285.02 267.88 1272.95 271.61 1273.69 284.04L1353.49 284.2C1354.79 284.62 1355.05 285.43 1355.27 286.67C1355.89 289.92 1355.66 311.01 1354.78 313.73C1354.52 314.54 1353.06 316.85 1352.61 316.85H1273.72C1273.2 322.27 1275.83 326.97 1280.37 329.77C1293.77 338.01 1334.27 331.68 1351.6 333.73C1352.67 333.86 1355.27 334.22 1355.27 335.38V361.86C1355.27 361.86 1353.81 363.45 1353.68 363.45H1266.84C1265.09 363.45 1253.76 357.9 1251.56 356.47C1212.23 331.35 1217.06 253.05 1265.03 237.7C1282.81 232.02 1332.62 230.89 1351.64 233.12C1352.71 233.25 1355.31 233.61 1355.31 234.77C1355.31 242.49 1356.54 256.61 1355.31 263.36L1355.25 263.39L1355.24 263.4Z" fill="#7A7A7A"/>
<path d="M287.68 266.03C285.64 268.46 233.49 266.19 224.95 267.36C216.32 268.53 206.58 272.45 206.13 282.45C206.03 284.66 206.13 283.81 207.72 284.04H287.71V314.22C287.71 314.41 285.24 316.88 285.05 316.88H206.16C205.64 322.3 208.27 327 212.81 329.8C226.05 337.95 266.84 331.75 284.04 333.76C285.11 333.89 287.71 334.25 287.71 335.41V361.89C287.71 361.89 286.25 363.48 286.12 363.48H200.32C188.35 363.48 171.21 346.61 166.05 336.32C149.44 303.32 158.03 251.01 196.65 238.03C214.43 232.06 264.89 230.92 284.04 233.16C285.11 233.29 287.71 233.65 287.71 234.81V266.06L287.68 266.03Z" fill="#7A7A7A"/>
<path d="M347 363.48H305.17C305.17 363.48 303.58 362.02 303.58 361.89V234.81C303.58 233.93 306.14 232.93 307.25 233.16C337.66 236.44 397.27 225.14 422.26 244.32C436.47 255.22 435.08 268.98 435.95 284.62C437.15 306.01 439.55 339.1 437.12 359.84C436.99 360.91 436.63 363.51 435.47 363.51H395.23C395.23 363.51 393.64 362.05 393.64 361.92V281.44C393.64 275.86 385.98 268.2 380.4 268.2H348.63C348.63 268.2 347.04 269.66 347.04 269.79V363.51L347.01 363.48H347Z" fill="#7A7A7A"/>
<path d="M515.39 187.66V233.19H553C553 233.19 554.59 234.65 554.59 234.78V263.37C554.59 263.37 553.13 264.96 553 264.96H516.98C516.98 264.96 515.39 266.42 515.39 266.55V317.4C515.39 319.12 518.02 326.55 519.25 328.24C522.95 333.3 534.31 334.34 540.28 334.86C542.81 335.09 554.56 333.92 554.56 336.45V363.45H495.79C493.71 363.45 483.88 356.05 482 353.94C465.94 335.67 475.83 292.25 473.08 268.63C472.95 267.56 472.59 264.96 471.43 264.96H447.61C445.89 254.9 445.89 243.25 447.61 233.19H473.02V187.66H515.4H515.39Z" fill="#7A7A7A"/>
<path d="M734.619 363.48V187.66H777.519C777.519 187.66 779.109 189.12 779.109 189.25V361.89C779.109 361.89 777.649 363.48 777.519 363.48H734.619Z" fill="#7A7A7A"/>
</g>
<defs>
<clipPath id="clip0_485_921">
<rect width="1512.65" height="364.33" fill="white"/>
</clipPath>
</defs>
</svg>
