<svg width="100" height="100" viewBox="0 0 335 340" fill="none" xmlns="http://www.w3.org/2000/svg">
<g clip-path="url(#clip0_485_977)">
<path d="M19.7325 189.605C-8.07753 161.097 -6.29017 115.478 23.7986 89.358C36.9412 77.9533 52.6929 73.3516 69.8593 72.1366C77.3688 50.322 90.9053 31.3691 109.91 18.2329C156.034 -13.636 220.278 -2.65883 252.56 42.8289C259.235 52.227 263.556 62.1754 268.016 72.7504C295.749 73.7368 321.264 91.2969 330.679 117.463C346.893 162.481 315.542 208.079 268.363 210.479L66.3227 210.445C48.2457 209.37 32.2653 202.457 19.7241 189.609L19.7325 189.605ZM227.757 83.935C231.824 82.4025 235.453 79.727 239.464 78.0718C241.459 77.2505 251.743 74.4777 251.895 73.4151C232.556 18.8256 165.322 -2.51914 117.585 31.0177C98.4148 44.4841 85.5983 65.287 81.2569 88.3166C68.5759 87.0339 56.4625 87.4191 44.8743 93.168C-2.82979 116.82 9.52506 187.149 61.274 195.049C131.667 196.209 202.345 196.234 272.738 195.036C319.311 189.164 336.664 130.506 300.633 100.225C275.411 79.0158 236.749 85.5987 220.079 113.7C223.06 133.245 221.472 186.81 190.638 181.417C168.465 177.539 178.558 150.302 176.551 135.434C175.454 127.293 165.996 127.437 164.594 133.593C163.586 138.021 164.374 149.938 164.429 155.208C164.463 158.307 165.428 161.211 165.085 164.763C164.319 172.718 159.079 179.093 151.307 181.023C126.043 187.289 120.431 153.282 119.673 135.405C119.287 126.29 121.108 116.964 120.266 107.981C119.313 97.901 112.79 88.2827 112.011 77.2505C110.27 52.6207 128.385 31.9491 153.84 34.7981C159.046 35.3781 165.699 39.2263 170.532 39.2009C175.115 39.1797 182.523 35.2554 187.796 34.7431C211.396 32.4317 230.557 51.8545 229.011 75.3032C228.914 76.7933 227.236 83.3678 227.749 83.935H227.757ZM191.464 165.567C198.952 169.555 202.141 155.729 203.268 150.513C206.83 134.003 203.116 122.412 204.102 107.261C205.263 89.5231 225.631 64.7197 200.922 52.2736C186.33 44.9202 178.342 57.6542 164.433 54.2336C160.037 53.1583 156.784 50.6395 151.905 50.1357C138.554 48.7683 128.249 58.2215 127.339 71.4339C126.276 86.9365 137.292 96.3473 136.305 112.345C135.505 125.363 133.764 135.836 136.61 149.112C137.661 154.01 142.87 173.259 149.609 163.967C149.215 150.907 144.797 133.576 153.315 122.302C163.544 108.772 184.433 111.401 189.85 127.856C192.129 134.803 191.472 145.768 191.328 153.265C191.273 155.962 189.465 163.565 191.447 165.546L191.46 165.567H191.464Z" fill="#7A7A7A"/>
<path d="M14.2175 271.796L13.7558 294.639C12.4937 297.268 5.86515 296.006 3.35352 295.439V233.132L4.3065 232.18H27.9616C29.1475 232.18 33.8828 233.331 35.2932 233.788C50.9348 238.881 50.9009 263.193 36.3986 269.362C34.9967 269.963 28.5376 271.783 27.322 271.783H14.2133V271.796H14.2175ZM14.2175 262.211H27.9616C28.1818 262.211 31.6549 260.819 32.07 260.569C38.0547 256.941 37.8472 247.737 32.43 243.686C31.9599 243.326 29.427 241.768 29.2407 241.768H14.2133C13.0824 248.605 14.6749 255.298 14.2133 262.211H14.2175Z" fill="#7A7A7A"/>
<path d="M151.029 267.96C152.533 268.345 152.105 267.609 152.499 267.147C157.814 260.967 162.355 254.087 168.051 248.237C169.432 247.064 178.28 247.153 178.564 248.542C178.75 250.218 177.751 251.315 176.853 252.563C175.252 254.799 164.489 266.377 164.455 267.626L179.932 292.421L180.402 295.414C177.704 296.146 171.973 296.519 169.585 295.096C168.708 294.571 160.233 280.097 158.788 277.752C158.382 277.096 158.077 276.406 158.043 275.627C157.374 275.11 151.368 282.366 151.148 283.112C150.305 285.906 151.893 292.798 150.707 294.813C149.61 296.663 139.746 297.276 140.118 293.246C141.402 272.879 138.539 250.705 140.118 230.558C140.216 229.331 140.491 228.247 140.788 227.074H150.059L151.012 228.027V267.96H151.025H151.029Z" fill="#7A7A7A"/>
<path d="M258.44 267.96C259.677 268.256 259.668 267.511 260.236 266.885C265.399 261.242 269.871 254.701 274.725 248.774C276.949 247.327 286.322 245.968 285.941 249.706C285.657 252.597 271.803 265.953 271.955 267.532L288.397 294.385C287.982 296.51 279.079 296.455 277.423 295.469C275.416 294.275 266.496 275.673 265.145 275.639C264.158 276.605 258.436 283.09 258.436 283.615V295.435C255.124 296.4 251.506 296.4 248.207 295.435V228.022C250.52 226.456 256.199 226.477 258.436 228.022V267.956L258.44 267.96Z" fill="#7A7A7A"/>
<path d="M127.374 295.439C123.612 296.358 117.89 297.488 117.454 292.239C106.624 300.126 88.6148 297.992 89.0002 281.732C89.2416 271.182 99.9616 267.969 108.314 265.844C113.036 264.637 120.228 265.624 114.76 258.537C112.621 255.764 108.14 256.061 104.841 256.619C101.541 257.178 99.1315 259.883 96.7172 260.675C93.8668 261.619 92.486 256.348 91.1942 254.223C91.0968 252.699 93.5618 251.713 94.7689 251.035C104.04 245.744 119.784 243.619 125.141 255.197C125.514 256.01 127.378 261.475 127.378 261.903V295.448V295.435L127.374 295.439ZM116.51 273.079C110.415 272.617 97.4161 276.3 100.178 284.615C102.469 291.515 116.51 284.636 116.51 282.337V273.07V273.083V273.079Z" fill="#7A7A7A"/>
<path d="M331.155 295.287C329.994 296.447 323.218 296.417 322.485 295.308C322.045 294.652 322.671 292.899 321.388 292.239C308.826 301.442 290.029 296.214 293.874 278.15C295.891 268.718 312.269 265.103 320.444 264.773C320.795 251.518 306.949 256.742 299.757 260.827C291.337 253.741 297.741 250.506 305.458 248.195C318.402 244.317 329.812 247.844 331.303 262.538C332.193 271.301 331.468 280.102 331.248 288.734C331.193 290.74 332.697 293.75 331.151 295.287H331.155ZM321.096 273.066C315.636 272.059 299.207 277.537 304.806 285.195C308.588 290.376 320.49 285.961 321.096 280.428C321.35 278.083 320.922 275.454 321.096 273.066Z" fill="#7A7A7A"/>
<path d="M202.819 257.106C201.722 261.293 202.874 265.094 202.874 268.926C202.874 270.602 202.06 272.202 202.128 274.044C202.238 277.286 203.179 281.185 203.115 284.614C204.89 290.334 211.984 285.567 213.725 286.773C216.969 293.72 216.783 295.854 208.837 296.654C185.174 299.033 193.534 272.727 191.87 258.156L190.917 257.203L185.665 257.03C183.746 250.557 184.348 247.115 191.904 248.102C193.098 244.948 192.209 241.548 192.768 238.428C193.666 233.412 198.172 235.842 202.107 235.482C203.797 239.415 201.154 243.292 202.84 247.534H212.751C212.958 247.534 213.725 248.377 214.352 248.169V257.119H202.844L202.823 257.106H202.819Z" fill="#7A7A7A"/>
<path d="M82.5398 257.017C80.1849 257.72 77.8723 256.12 75.5894 256.734C71.7182 257.775 67.7284 263.054 67.2794 267.012C66.3053 275.56 68.1138 285.639 67.1481 294.36C66.3603 297.044 56.2079 297.243 56.3731 293.242L56.7246 248.796C57.8089 246.548 64.8567 247.471 65.7038 248.775C66.3603 249.783 65.365 252.674 66.9406 251.997C67.6648 251.679 69.5623 249.664 70.9092 248.927C74.2298 247.132 78.2747 245.685 81.968 247.209C86.2416 248.974 83.1624 253.487 82.5271 257.026H82.5398V257.017Z" fill="#7A7A7A"/>
<path d="M226.289 247.661C228.546 247.17 234.366 246.687 234.764 249.774L234.205 295.185C233.154 296.51 224.056 297.234 223.934 293.826L224.23 248.787C224.768 248.186 225.522 247.822 226.301 247.657H226.289V247.661Z" fill="#7A7A7A"/>
<path d="M224.106 239.651C217.923 232.649 230.388 224.238 235.068 231.566C239.901 239.127 229.041 245.24 224.106 239.651Z" fill="#7A7A7A"/>
<path d="M115.667 239.651C110.733 244.977 100.377 238.775 104.99 231.849C110.153 224.115 121.915 232.899 115.667 239.651Z" fill="#7A7A7A"/>
<path d="M257.165 320.552L257.364 321.276L257.059 321.614H251.964C251.659 321.801 251.667 322.042 251.633 322.347C251.282 325.348 251.405 331.986 251.633 335.11C251.765 336.931 252.345 338.45 254.353 338.768C255.56 338.954 256.402 338.34 257.597 338.395L257.389 339.348C254.145 340.279 250.943 339.852 250.591 335.94C250.24 332.028 250.494 327.592 250.591 323.854C250.613 323.088 250.613 322.351 250.371 321.606H243.256L242.938 321.923V339.441C242.413 339.441 241.731 339.594 241.667 338.916L241.633 321.957L241.316 321.64L239.211 321.411L239.113 320.763L241.57 320.349C241.383 315.45 241.688 307.805 248.673 311.31C248.741 311.607 248.444 311.814 248.169 311.827C247.106 311.882 245.801 311.226 244.564 311.861C243.743 312.288 242.942 313.821 242.942 314.697V320.217L243.26 320.535H250.274L250.591 320.217V315.125C250.591 314.731 251.654 314.731 251.654 315.125V320.217L251.972 320.535H257.178L257.165 320.548V320.552Z" fill="#7A7A7A"/>
<path d="M266.088 337.96L271.395 320.649L272.907 320.671L278.083 337.752L283.081 320.925L284.352 320.552L278.99 338.663C278.761 339.475 278.037 340.098 277.325 339.353L272.238 322.03L271.798 322.326L266.787 339.463C266.326 339.717 265.855 339.683 265.449 339.331L259.926 320.544C260.341 320.522 260.781 320.446 260.955 320.895L266.097 337.951L266.084 337.964L266.088 337.96Z" fill="#7A7A7A"/>
<path d="M115.679 310.997L116.708 311.031C117.255 311.865 116.708 312.665 116.721 313.44C116.852 321.382 116.895 329.294 116.721 337.227C116.7 338.138 117.619 340.043 115.768 339.255L115.561 337.117C113.938 338.028 112.49 339.209 110.618 339.615C103.646 341.126 100.961 334.599 101.431 328.735C102.011 321.437 109.017 317.517 115.133 322.051L115.671 321.721V310.993H115.683L115.679 310.997ZM108.826 321.242C99.7834 322.423 100.834 341.732 111.262 338.332C112.608 337.892 115.328 336.393 115.472 334.903C115.81 331.44 115.285 327.266 115.353 323.748C113.743 321.962 111.253 320.933 108.822 321.251L108.835 321.238L108.826 321.242Z" fill="#7A7A7A"/>
<path d="M183.871 339.45C182.456 339.518 182.842 338.07 182.808 337.117C182.028 337.096 181.579 337.862 180.881 338.269C176.857 340.614 170.106 340.669 170.402 334.543C170.677 328.769 178.547 328.439 182.778 327.533C182.867 321.428 179.271 319.908 173.956 322.22C173.286 322.504 171.368 324.095 171.533 322.58C171.588 322.034 173.604 321.2 174.197 320.98C179.008 319.193 183.384 319.959 183.867 325.767C184.129 328.892 183.922 332.033 183.867 335.102C183.833 336.55 183.909 338.015 183.867 339.462L183.879 339.45H183.871ZM182.808 328.832C178.708 328.875 171.211 330.047 171.749 335.538C172.287 341.029 180.639 338.442 182.808 335.318V328.832Z" fill="#7A7A7A"/>
<path d="M300.505 339.45L299.54 339.251C299.18 338.726 299.815 337.401 299.125 336.905C295.88 340.555 286.901 341.52 286.893 334.878C286.88 328.633 294.521 328.896 298.642 327.71C299.747 327.393 299.375 326.123 299.18 325.158C297.964 319.426 292.208 320.865 288.536 323.282L287.99 322.58C291.06 319.972 297.998 318.439 299.883 323.181C300.035 323.566 300.51 325.416 300.51 325.733V339.441L300.505 339.45ZM299.442 335.309V329.154C299.442 329.099 299.036 328.705 298.883 328.671C298.654 328.629 296.253 329.01 295.783 329.099C292.153 329.768 286.588 331.859 288.57 336.626C290.302 340.787 297.35 337.964 299.442 335.309Z" fill="#7A7A7A"/>
<path d="M227.801 319.959C239.804 319.049 239.893 341.071 227.547 339.843C217.483 338.836 217.78 320.725 227.801 319.959ZM223.459 323.596C220.545 327.08 220.63 332.973 223.591 336.38C229.991 343.734 238.584 333.807 234.62 325.357C232.473 320.789 226.848 319.561 223.459 323.591V323.596Z" fill="#7A7A7A"/>
<path d="M9.40725 319.972C14.1976 319.667 17.7723 324.552 18.1535 328.946C18.7888 336.253 11.6309 343.484 4.87954 338.171C-1.36778 333.264 0.779605 320.53 9.40725 319.972ZM8.33568 321.229C4.69741 321.843 2.46956 326.665 2.46109 330.017C2.44838 337.578 10.8558 342.629 15.4851 335.178C18.882 329.721 15.7605 319.972 8.32721 321.229H8.33991H8.33568Z" fill="#7A7A7A"/>
<path d="M330.464 329.895H316.97L316.686 330.246C316.445 335.766 320.786 339.974 326.386 338.45C327.055 338.264 329.257 336.842 329.609 337.333C330.299 338.319 327.076 339.403 326.441 339.555C311.248 343.247 312.434 316.195 326.013 320.437C328.181 321.115 330.473 324.383 330.473 326.593V329.878L330.46 329.89L330.464 329.895ZM329.401 329.039C330.244 322.884 322.747 317.986 318.474 323.54C317.521 324.776 316.335 327.625 317.182 329.039H329.405H329.401Z" fill="#7A7A7A"/>
<path d="M136.704 329.895H123.209C122.312 331.69 123.464 334.552 124.688 336.05C127.449 339.437 131.68 339.458 135.2 337.202C135.615 337.126 136.013 337.828 135.827 338.146C127.212 343.285 119.529 335.923 121.939 326.707C123.277 321.623 129.207 317.779 133.819 321.394C134.959 322.283 136.691 324.988 136.691 326.381V329.886L136.704 329.899V329.895ZM135.636 329.04C135.967 318.643 122.866 318.6 123.095 329.04H135.636Z" fill="#7A7A7A"/>
<path d="M76.2586 329.895L75.9748 330.246C75.8986 336.359 80.5661 340.381 86.6185 338.125C86.9362 338.006 89.3801 336.435 88.8761 338.048C88.7575 338.455 86.267 339.441 85.7206 339.56C76.5805 341.74 72.1629 331.715 75.8986 324.43C78.5415 319.29 86.267 318.228 88.8676 323.858C89.0412 324.243 89.7443 326.114 89.7443 326.377V329.565L89.4267 329.882H76.2501L76.2628 329.895H76.2586ZM76.4788 329.04H88.5923C89.109 329.04 88.7024 326.902 88.5923 326.474C87.1692 320.505 79.6936 319.036 76.9617 324.853C76.644 325.522 75.5386 328.752 76.4704 329.04H76.4831H76.4788Z" fill="#7A7A7A"/>
<path d="M22.8379 320.552C24.35 320.005 23.8248 322.105 23.901 323.092C24.2187 323.409 25.9383 321.711 26.3787 321.428C29.1191 319.696 32.9352 319.027 35.0403 322.042C37.1453 325.056 36.366 333.755 36.2135 337.434C36.1711 338.332 36.9716 340.241 35.1631 339.123V325.953C35.1631 325.538 34.6718 323.926 34.4854 323.456C33.3334 320.619 29.5638 320.738 27.2512 322.076C26.4084 322.558 23.9179 324.573 23.9179 325.538V339.123C23.9179 339.517 22.8548 339.517 22.8548 339.123V320.543L22.8421 320.556L22.8379 320.552Z" fill="#7A7A7A"/>
<path d="M154.547 339.449H153.484V327.245C153.484 326.914 153.298 325.395 153.221 324.954C152.357 319.967 147.05 320.463 143.925 323.202C143.67 323.422 142.226 324.988 142.226 325.119V339.132C140.396 340.271 141.205 338.201 141.184 337.227C141.053 332.143 140.922 327.029 140.93 321.944C140.93 321.474 141.15 321.034 141.159 320.564C142.396 320.446 142.057 321.661 142.222 322.579C142.277 322.876 142.023 323.206 142.54 323.117C142.912 323.049 144.183 321.792 144.7 321.453C147.364 319.743 151.146 319.044 153.226 321.978C153.772 322.757 154.543 324.861 154.543 325.759V339.454L154.547 339.449Z" fill="#7A7A7A"/>
<path d="M204.751 337.904C204.455 337.6 204.476 336.884 204.489 336.469C205.891 336.799 206.843 337.794 208.326 338.264C211.155 339.174 215.967 338.802 215.92 334.877C215.874 330.953 209.575 330.399 207.051 328.489C204.904 326.868 204.234 324.569 205.878 322.254C207.775 319.591 212.422 319.612 215.009 321.17C215.34 321.369 216.687 322.376 215.624 322.647C215.251 322.745 212.739 321.309 211.799 321.191C208.872 320.806 205.323 322.613 206.56 326C207.796 329.387 217.051 329.002 217.216 334.251C217.369 339.018 212.426 340.516 208.525 339.543C207.932 339.399 205.06 338.218 204.755 337.9L204.751 337.904Z" fill="#7A7A7A"/>
<path d="M69.9912 339.45H68.9281V326.183C68.9281 326.018 68.6443 324.68 68.5765 324.417C67.0221 318.96 59.9404 321.175 57.8354 325.073L57.4754 339.361L56.6113 339.45V320.552L57.1492 320.345C57.937 320.946 57.5643 321.966 57.6744 322.779C57.7168 323.075 57.5643 323.139 57.9921 323.096C60.7536 320.556 65.7218 318.11 68.5935 321.835C69.0212 322.394 69.9954 324.485 69.9954 325.112V339.454L69.9912 339.45Z" fill="#7A7A7A"/>
<path d="M161.77 314.811V320.221L162.088 320.539H167.183C167.577 320.539 167.577 321.601 167.183 321.601H161.978C161.88 321.995 161.791 322.346 161.757 322.761C161.558 325.293 161.44 334.856 162.088 336.892C162.659 338.679 164.116 338.658 165.717 338.603C166.56 338.569 167.645 337.879 167.933 338.92C165.158 340.74 161.575 339.995 160.864 336.443L160.698 321.961C160.436 321.174 158.055 321.982 157.64 321.415L157.543 320.767L160.635 320.352C161.313 319.379 159.661 314.777 161.787 314.819L161.774 314.807L161.77 314.811Z" fill="#7A7A7A"/>
<path d="M189.613 311.314C189.634 311.217 189.943 311.018 190.028 310.887L190.519 310.984L190.879 311.949V338.069C190.921 339.001 192.633 338.51 192.522 339.352C192.412 340.228 190.549 339.945 190.011 339.145C189.922 339.013 189.596 338.171 189.596 338.069V311.314H189.608H189.613Z" fill="#7A7A7A"/>
<path d="M42.1605 310.997L43.0245 311.086L43.2321 311.721C43.7784 319.98 42.4527 329.285 43.2321 337.422C43.2659 337.807 43.3507 338.188 43.4947 338.539L44.7992 338.802C45.5234 340.665 42.169 339.831 42.169 338.484V310.984L42.1562 310.997H42.1605Z" fill="#7A7A7A"/>
<path d="M306.24 320.649L306.668 320.429C307.718 320.547 307.075 323.727 307.413 323.727C308.303 323.409 308.443 322.249 309.112 321.601C309.989 320.759 313.212 319.345 314.22 320.319C315.613 321.665 313.343 321.14 312.937 321.161C310.052 321.271 307.303 324.666 307.303 327.439V339.437H306.24V320.649Z" fill="#7A7A7A"/>
<path d="M49.3848 320.869C49.5372 320.353 50.6554 320.518 50.6554 320.869V339.132C50.6554 339.547 49.3848 339.547 49.3848 339.132V320.869Z" fill="#7A7A7A"/>
<path d="M49.5387 313.156C51.631 312.508 52.0037 315.107 50.4578 315.577C48.6365 316.123 48.2553 313.549 49.5387 313.156Z" fill="#7A7A7A"/>
</g>
<defs>
<clipPath id="clip0_485_977">
<rect width="335" height="340" fill="white"/>
</clipPath>
</defs>
</svg>
