<?xml version="1.0" encoding="UTF-8"?>
<svg id="Layer_1" data-name="Layer 1" xmlns="http://www.w3.org/2000/svg" viewBox="0 0 1358.15 292.9">
  <defs>
    <style>
      .cls-1 {
        fill: #26bb9d;
      }

      .cls-2 {
        fill: white;
      }
    </style>
  </defs>
  <path class="cls-1" d="M15.04,186.23c1.71.6,3.45,0,5.22.66,1.17.43,1.17,1.74,1.57,1.74,4.42,0,3.68.8,3.94.83.8,0,2-1,3.05-.88.51.06.43,1.63.97,1.68,12.87,1.51,26.53.46,39.63-.54,55.6-4.34,106.24-58.43,110.27-114.66,1.85-25.99-3.25-50.15-15.04-73.21,1.37-1.23,32.21,3.34,36.57,4.17,26.68,5.11,61.77,15.78,71.41,44.14,4.62,13.64,6.93,41.54,5.19,55.8-5.96,49.18-15.95,97.97-38.12,143.1-7.47,15.23-26.56,50.81-47.93,41.82s-22.94-61.54-43.82-75.69c-26.7-18.06-40,42.88-47.3,57.86-28.62,58.69-67.04-28.96-76.12-53.95-1.51-4.17-10.56-30.87-9.47-32.87h-.03Z"/>
  <path class="cls-1" d="M124.76,145.57c-24.54,22.57-62.28,31.75-94.72,25.25-3.74-.74-20.08-5.14-21.71-7.59-.46-.68-.6-1.54-.86-2.31-2.77-8.36-4.62-23.85-5.79-32.98-.83-6.36-1.57-12.84-1.68-19.29,24.59,25.71,62.45,31.21,92.06,10.16,34.72-24.68,38.49-76.63,6.88-105.53-2.37-2.17-7.82-5.22-9.47-7.13-.86-1-1.06-1.34-.83-2.74L130.95.19c9.87-.31,10.13-1.14,15.32,6.9,28.39,44.08,15.92,104.08-21.48,138.48h-.03Z"/>
  <path class="cls-1" d="M92.26,93.31C51.41,148.22-30.53,82.89,13.47,30.74c41.4-49.1,117.28,10.81,78.8,62.57Z"/>
  <path class="cls-2" d="M481.12,93.53c-.48.68-14.64,4.39-16.01,4.08-4.39-10.1-10.07-19.74-21.28-23.22-35.09-10.87-61.88,26.59-42.42,56.66,12.61,19.51,45.28,21.94,58.29,1.6,1.34-2.11,4.39-10.33,5.68-11.01l15.75,2.88c-11.44,52.72-87.61,51.1-101.48-.23-17.63-65.28,74.66-94.58,99.17-39.03.68,1.54,3.14,7.05,2.28,8.25l.03.03Z"/>
  <path class="cls-2" d="M781.17,125.29v35.21s-1.11,1.2-1.2,1.2h-14.24c-.29,0-1.28-.8-1.85-.91-.34-28.27.03-56.66-.09-84.99,0-2.05-.88-4.05-.88-6.28,0-1.83.86-11.5,2.05-11.5h51.44c2.37,0,10.9,2.88,13.35,4.05,23.99,11.44,23.71,47.36,0,59.17-2.23,1.11-10.5,4.05-12.55,4.05h-36.03ZM781.17,109.45h32.84c.46,0,5.62-1.83,6.48-2.23,11.93-5.76,13.27-22.74,2.11-30.1-1.23-.8-6.7-3.31-7.79-3.31h-33.64v35.63Z"/>
  <path class="cls-2" d="M991.29,84.92c1.03.31,1.11,1.8,1.23,2.74,1.74,14.86.57,41.4,0,57.06-.2,5.16-1.23,10.9-1.17,16.23-.86,1.23-14.29,1.11-15.81.03-1.34-.97.34-5.73-.86-7.22-22.71,19.2-57.17,8.27-63.51-21.2-8.27-38.63,32.84-65.08,63.88-40.54,0-1.31-.46-7.13,1.2-7.13,3.14,0,12.95-.66,15.04,0v.03ZM945.58,97.76c-25.45,4.31-25.13,46.3,0,50.27,39.77,6.28,38.63-56.83,0-50.27Z"/>
  <path class="cls-2" d="M714.66,126.86h-60.94c1.06,21.74,27.59,29.3,41.51,12.61,1.08-1.28,1.08-3.79,3.14-3.88,2.97,1.45,10.9,1.34,13.15,2.71,1.37.86-.83,5.39-1.43,6.5-8.76,16.26-30.81,22.05-47.62,16.43-36.52-12.24-33.55-69.41,3.88-77.57,28.9-6.31,49.64,14.89,48.3,43.17v.03ZM697.26,114.99c-4.14-23.11-39.11-23.37-42.74,0h42.74Z"/>
  <path class="cls-2" d="M1297.18,126.86c.2,24.08,33.75,29.61,44.05,8.64,2.23.97,14.21,2.08,14.52,3.62-11.9,32.87-60.48,32.04-72.64-.2-10.07-26.76,6.3-55.66,35.78-56.43,23.62-.63,39.09,19.03,39.26,41.62,0,.88-.43,2.74-1.23,2.74h-59.74ZM1340.71,114.99c-4.48-23.34-38.97-23.22-43.54,0h43.54Z"/>
  <path class="cls-2" d="M526.14,82.75c49.24-5.42,63.82,66.42,15.04,79.14-56.66,14.81-73.83-72.66-15.04-79.14ZM526.11,97.78c-29.96,4.39-26.19,54.12,7.62,50.35,31.15-3.48,26.96-55.43-7.62-50.35Z"/>
  <path class="cls-2" d="M1268.59,110.14c-.4.63-13.55,4.25-14.41,3.97-1.17-.37-2.97-5.31-4.17-6.96-10.64-14.78-34.04-10.44-40.28,6.28-11.53,30.81,31.53,48.99,44.45,18.94,1.88-.46,14.12,2.65,14.98,3.99-8.44,31.81-52.07,36.23-70.3,10.1-27.84-39.97,25.25-85.42,60.34-54.01,2.88,2.57,11.61,14.24,9.39,17.72v-.03Z"/>
  <path class="cls-2" d="M1081.04,110.17l-15.26,4.08c-8.25-25.13-43.96-19.4-45.65,6.62-1.54,24.11,27.1,36.92,42.39,17.86,1.26-1.57,2.82-5.85,4.08-6.25,2.74-.88,11.13,2.74,14.44,3.14-5.73,29.5-44.91,36.03-65.25,16.58-16.26-15.55-16.15-44.45.8-59.4,20.97-18.49,58.26-11.33,64.45,17.37h0Z"/>
  <path class="cls-2" d="M1145.23,84.92v13.47h-26.1v37.6c0,1.68,2.62,7.13,3.97,8.47,6.3,6.39,15.18,1.23,22.08-.09.4,4.19,6.25,11.75,2.23,14.35-6.99,4.51-18.83,5.56-26.7,3.4-27.13-7.5-14.24-43.91-18.2-63.73h-15.83v-13.47h15.43s1.2-1.11,1.2-1.2v-21.37s1.11-1.2,1.2-1.2h13.47s1.2,1.11,1.2,1.2v21.37s1.11,1.2,1.2,1.2h24.93-.06Z"/>
  <path class="cls-2" d="M599.12,97.58c1.34.29,1.6-.43,2.34-1.2,4.82-4.91,9.36-9.56,16.29-11.41,2.6-.68,14.26-2.54,15.26.46.31.91-.6,13.98-1.03,14.58-3.77,1.6-8.13.23-12.35,1.08-8.1,1.63-13.52,8.25-17.37,14.92-1.37,2.34-3.14,8.07-3.14,11.27v33.24s-1.11,1.2-1.2,1.2h-15.43c.26-.77-.8-1.71-.8-1.97v-73.61c0-3.08,14.86-.34,17.4-1.2v12.67l.03-.03Z"/>
  <path class="cls-2" d="M873.74,160.89c-.77,1.2-14.32,1.14-16.63,0v-74.8s1.11-1.2,1.2-1.2h14.24s1.2,1.11,1.2,1.2v13.07c5.16-5.53,10.73-11.47,18.34-13.69,2.54-.74,14.01-2.51,15.35-.6,1.48,2.14-1.06,11.95-.8,15.15-6.73,1.28-12.04.2-18.69,3.48-7.39,3.65-14.21,16.52-14.21,24.56v32.84h0Z"/>
  <rect class="cls-2" x="1162.63" y="84.92" width="15.83" height="75.97"/>
  <path class="cls-2" d="M1004.35,215.5v-11.07h7.13c.26,1.91-.86,11.87,1.17,11.87h12.27c.14,1.11.2,5.53-1.2,5.53h-12.27v22.57c0,3.77,6.08,4.74,9.07,4.31,2.8-.4,3.57-3.25,5.25.37,1.97,4.22-1.57,5.42-5.28,5.93-13.75,1.88-15.46-6.28-16.18-17.72-.14-2.28.88-15.46-1.14-15.46h-18.2s-1.2,1.11-1.2,1.2v31.27h-6.33v-32.44c0-.51-9.16,2.11-7.02-4.25.83-2.48,5.48-.31,6.68-2.03,1.51-2.14-1.17-10.16,4.68-15.09,3.22-2.71,14.75-4.51,14.72.4,0,5.31-5.99,2.85-9.02,3.74-3.4.97-5.16,9.79-3,11.38.8.6,17.09-1.31,19.83-.46l.03-.06Z"/>
  <path class="cls-2" d="M407.43,201.46c35.69-.77,35.58,54.49.57,54.46-35.18-.03-35.86-53.69-.57-54.46ZM403.44,208.56c-21.17,3.62-19.8,37.26.68,40.11,31.95,4.42,31.21-45.56-.68-40.11Z"/>
  <path class="cls-2" d="M632.36,254.27l-.83-48.73c-.17-.8.57-2.74,1.23-2.74h23.74c11.61,0,21.71,14.86,21.83,25.73s-10.7,25.71-21.83,25.71h-24.14v.03ZM639.89,208.36c-.26.4-1.2.97-1.2,1.2v38c0,2.88,16.63.26,19.2-.57,16.29-5.25,18.03-26.99,3.51-35.6-1.8-1.06-7.85-3-9.67-3h-11.87l.03-.03Z"/>
  <path class="cls-2" d="M922.04,217.09c-1.68-.34-5.91.57-6.99-.11-.29-.17-1.63-4.28-3.25-5.85-6.16-5.88-23.22-3.68-19.46,8.39,1.57,5.02,16.75,5.99,22.02,8.05,3.88,1.54,7.73,4.54,8.44,8.96,3.28,20.83-26.85,25.13-37.15,11.04-1.06-1.46-4.76-8.42-1.85-9.13,7.96-1.97,6.42,4.56,10.96,7.96,6.19,4.59,21.45,3.45,21.74-6.02.26-8.82-15.72-8.47-21.77-10.56-9.04-3.11-13.29-10.98-8.73-19.89,6.88-13.38,36.09-9.7,36.06,7.16h-.03Z"/>
  <path class="cls-2" d="M1041.55,243.2c1.14,1.14,1.37-.31,1.77-1,3.59-6.56,5.45-18.57,8.59-25.82,1.34,0,4.68-.71,5.53.4,2.65,3.4,6.08,18.97,8.59,24.48.37.77.51,1.85,1.63,1.94,1.54-3.22,7.65-26.05,8.82-26.79.97-.63,4.71.2,6.22-.11l-12.07,37.8c-2.4,1.31-4.71,1.71-6.53-.6-1.26-1.6-8.25-26.62-9.9-25.31-1.91,3.62-7.62,25.39-9.5,26.53-2.17,1.31-4.96.48-6.16-1.77-2.57-4.85-9.67-26.87-10.9-32.64-.29-1.34-.51-2.62-.37-3.99,1.77.17,4.76-.66,5.96.77l8.3,26.13.03-.03Z"/>
  <path class="cls-2" d="M832.6,220.23c-.97-5.82,1.74-3.65,6.33-3.97l.46,37.23c-.77,1.06-6.53,1.03-6.79.77-.46-.46.68-3.99-.4-4.74-9.44,9.76-27.19,7.02-31.87-6.11-5.65-15.83,5.68-31.1,22.82-27.56,3.45.71,6.16,3.4,9.44,4.39v-.03ZM815.77,221.23c-15.92,3.2-13.58,29.87,4.45,28.24,18.03-1.63,14.92-32.15-4.45-28.24Z"/>
  <path class="cls-2" d="M1124.63,254.27c-4.45.23-7.1.71-6.33-4.74-9.73,9.79-27.3,7.28-32.04-6.36-7.42-21.4,15.09-36.63,32.04-22.14-.8-6.5.88-4.62,6.33-4.74v38-.03ZM1094.85,245.28c15.01,14.98,34.06-11.18,17.09-22.22-13.67-8.9-28.67,10.7-17.09,22.22Z"/>
  <path class="cls-2" d="M607.05,236.87h-31.67c-.46,9.53,10.53,15.26,18.77,11.24,4.59-2.23,4.82-9.1,11.24-5.62.4,5.59-6.79,10.87-11.75,12.21-25.56,6.99-34.81-29.36-14.04-37.77,15.32-6.19,27.62,4.25,27.45,19.94ZM599.92,232.13c-.23-14.75-23.94-15.04-24.54,0h24.54Z"/>
  <path class="cls-2" d="M721.8,236.87h-31.67c-.06,9.61,11.01,15.78,19.29,10.96,2.31-1.34,4.39-5.51,5.99-5.91,10.21-2.62,1.97,9.84-5.05,12.41-22.68,8.27-37.46-22.45-19.37-35.21,14.44-10.19,32.3.48,30.81,17.75ZM714.66,232.13c.4-11.04-14.92-14.69-21.8-7.16-1.17,1.26-4.08,7.16-1.54,7.16h23.34Z"/>
  <path class="cls-2" d="M1199.84,236.87h-31.67c.63,10.78,12.67,16.35,21.31,9.84,3.57-2.68,3.08-7.16,9.53-4.31-5.19,19.2-34.89,16.58-37.2-3.57-3.48-30.18,39.51-31.84,38-1.97h.03ZM1193.5,232.13c-.46-14.89-25.19-14.89-24.54,0h24.54Z"/>
  <path class="cls-2" d="M933.4,249.25c-18.03-19,11.18-47.02,29.84-27.84,18.66,19.17-11.35,47.3-29.84,27.84ZM945.58,221.23c-3.25.54-6.59,3.14-8.5,5.73-10.96,15.01,11.38,31.35,22.48,16.95,8.1-10.53-1.17-24.85-13.98-22.68Z"/>
  <path class="cls-2" d="M736.03,254.27c-2.45-.29-6.62,1.23-7.13-1.97l.91-35.89c5.16-2,6.65-.68,6.62,4.62,6.68-7.99,22.4-8.1,27.1,2.2.31.66,1.8,5.05,1.8,5.34v24.54c0,1.68-7.13,1.68-7.13,0v-24.54c0-.23-1.94-3.48-2.37-3.97-3.65-4.19-11.98-3.79-15.83,0-1.23,1.2-3.97,6.42-3.97,7.9v21.77h0Z"/>
  <path class="cls-2" d="M561.12,254.27h-6.33v-24.93c0-2.25-4.25-6.79-6.9-7.33-10.64-2.17-15.23,5.05-15.95,14.55-.34,4.74,1.74,12.87.57,16.4-.71,2.2-5.08,1.06-7.02,1.28v-36.8c0-1.43,6.05-1.48,6.33-1.2.57.57-1.23,4.42,1.2,3.97,1.83-.34,4.82-3.71,8.25-4.42,5.93-1.2,11.01-.6,15.49,3.59,1.4,1.31,4.34,4.96,4.34,6.73v28.1l.03.06Z"/>
  <path class="cls-2" d="M443.21,216.3c.43-.68,5.51-1,6.22.11.66,1.03-.54,3.65.51,4.62,7.05-6.93,19.74-8.44,26.13,0,.74.97,2.74,4.28,2.74,5.16v28.1h-6.33v-24.14c0-.31-1.63-3.74-2.03-4.31-5.08-7.47-17.35-4.19-19.77,3.88-.2.66-1.17,5.62-1.17,5.96v18.6h-6.33c1-5.11-1.31-35.98,0-38h.03Z"/>
  <path class="cls-2" d="M783.53,204.43v11.07c2.25.11,12.3-.4,13.35.88.6.71.09,5.45-1.08,5.45h-12.27v21.77c0,.29,1.23,2.74,1.57,3.17,4.17,5.28,10.38-1.17,12.27,1.2,5.39,6.76-7.93,8.53-13.04,6.7-13.49-4.76-5.51-30.41-7.9-32.84-1.23-1.23-8.84,3.11-7.99-4.37.37-3.17,7.45-1.43,7.99-1.97,1.43-1.4-3.82-15.83,7.13-11.1l-.03.03Z"/>
  <path class="cls-2" d="M857.14,198.89v55.4c0,.37-7.13,1.71-7.13-.4v-55h7.13Z"/>
  <path class="cls-2" d="M1169.59,51.82c10.96-.97,16,15.61,5.11,20.2-15.26,6.45-20.74-18.8-5.11-20.2Z"/>
  <path class="cls-2" d="M1136.53,216.3h5.53v7.9c4.85-4.62,11.1-10.67,18.23-7.39.86,7.59-3.88,4.91-8.53,6.42-3.42,1.11-6.85,5.39-7.9,8.73-.49,1.51-1.8,7.28-1.8,8.47v13.84h-5.53v-38,.03Z"/>
  <path class="cls-2" d="M495.44,198.89v55.4h-5.53v-54.61c0-.29,4.56-.03,5.53-.8Z"/>
  <path class="cls-2" d="M507.31,216.3c1.31,0,7.13-.46,7.13,1.2v35.6c0,1.68-7.13,1.68-7.13,0,0,0,0-36.8,0-36.8Z"/>
  <path class="cls-2" d="M510.19,200.66c6.22-.66,6.68,8.99.6,9.3-5.16.26-6.13-8.7-.6-9.3Z"/>
</svg>