<?xml version="1.0" encoding="UTF-8"?>
<svg id="Layer_1" data-name="Layer 1" xmlns="http://www.w3.org/2000/svg" viewBox="0 0 458.1 136.06">
  <defs>
    <style>
      .cls-1 {
        fill: #3d70b7;
      }

      .cls-2 {
        fill: #fffefe;
      }
    </style>
  </defs>
  <path class="cls-1" d="M393.46,0l-6.1,32.08h22.16l7.31,47.11,18.91-47.11h22.36c-9.55,18.85-18.29,38.22-28.25,56.86-10.44,19.55-24.02,42.45-47.56,47.11l-4.66-17.64c5.44-2.42,10.58-4.48,15.2-8.37,2.37-1.99,9.02-8.98,9.09-11.96l-14.56-65.59-13.42,70.66h-21.14L372.32,0h21.14Z"/>
  <path class="cls-1" d="M81.65,0c-3.98,25.96-10.19,51.59-14.51,77.49-1.41,8.49-2.73,17.03-2.97,25.66h-19.51l.81-10.56c-5.09,6.04-11.47,11.44-19.72,12.18C5.37,106.59-1.84,88.86.39,71.32,3.78,44.72,27.83,25.16,54.81,31.68L60.51,0h21.14ZM40.44,83.92c8.5-8.4,8.16-23.36,11.1-34.23.22-1.22-1.58-1.88-2.55-2.25-17.9-6.84-31.34,19.72-25.79,34.29,3.1,8.15,11.68,7.68,17.24,2.19ZM45.67,91.78v.41c.26-.14.26-.27,0-.41Z"/>
  <path class="cls-1" d="M297.11,103.15l.61-13.81c-5.74,11.45-19.02,19-31.72,14.23-17.61-6.61-15.42-31.63-9.08-45.64,12.29-27.17,43.67-32.17,69.9-23.98-3.87,22.99-10.85,45.62-10.19,69.2h-19.51ZM296.22,46.42c-14.22,1.33-23.33,20.06-21.82,32.93,1.04,8.9,9.11,11.09,15.6,5.51,9.64-8.28,10.04-25.73,13.2-37.18.04-.48-.21-.77-.66-.91-1.47-.45-4.74-.5-6.32-.35Z"/>
  <path class="cls-1" d="M179.22,103.56c-.06-1.53.28-3.04.53-4.54,1.98-11.76,8.61-35.32,7.15-45.98-.75-5.51-6.16-6.69-10.69-4.65-7.23,3.25-11.36,13.35-13.14,20.58-2.77,11.25-3.92,23.29-6.63,34.59h-20.73l12.6-71.47h18.7l-1.22,11.37c6.86-8.59,16.43-14.09,27.79-12.95,14,1.42,16.42,13.48,15.29,25.33-1.46,15.36-6.57,31.3-8.55,46.69,0,.33-.35,1.03-.59,1.03h-20.53Z"/>
  <path class="cls-1" d="M93.44,75.94c1.01,14.87,18.54,13.79,29.17,10.66,1.19-.35,6.06-2.55,6.4-2.52.24.02.63.66.61.99l1.15,14.36c-17.7,7.76-48.37,10.14-55.74-12.61-6.74-20.81,5.49-47.12,26.44-54.23,14.89-5.06,36.72-1.65,38.27,17.21,2.02,24.57-28.66,26.66-46.29,26.14ZM95.47,60.51c5.66.06,21.75.15,24-6.27,1.38-3.93-.69-7.55-4.79-8.25-9.4-1.6-17.26,5.79-19.21,14.52Z"/>
  <path class="cls-1" d="M212.96,47.92l2.62-15.46c.74-1.1,8.61.34,9.39-.77l2.68-14.58,21.49-4.92-3.66,19.9h15.04l-2.89,15.8-15.22.43-5.87,30.68c-.11,2.31-.23,5.19,1.65,6.87.2.18,1.7,1.05,1.8,1.05h8.33l-2.49,16.6c-8.94,1.86-22.57,3.29-28.58-5.25-2.98-4.23-2.22-9.11-2.26-13.98l6.91-36.35h-8.94Z"/>
  <polygon class="cls-1" points="363.38 0 343.87 103.15 322.73 103.15 342.24 0 363.38 0"/>
  <path class="cls-2" d="M45.67,91.78c.26.14.26.27,0,.41v-.41Z"/>
</svg>