<?xml version="1.0" encoding="UTF-8"?>
<svg id="Layer_1" data-name="Layer 1" xmlns="http://www.w3.org/2000/svg" viewBox="0 0 1512.65 364.33">
  <defs>
    <style>
      .cls-1 {
        fill: #00688f;
      }

      .cls-2 {
        fill: #01a8e8;
      }
    </style>
  </defs>
  <path class="cls-2" d="M1119.07,156.96c15.45-7.69,30.31-16.78,46.6-22.75,55.13-20.15,117.21-15.97,169.49,10.51,4.15,2.11,17.69,9.22,19.11,12.69,1.85,4.51,1.46,27.88,1.04,34.01-.39,5.74-1.33,7.33-7.53,5.29-7.3-2.4-22.62-14.05-31.48-18.27-64.06-30.63-128.63-20.9-186.33,17.46-5.16,3.44-16.16,14.34-21.84,13.01-32.22-73.53-91.28-148.4-173.32-166.89-114.94-25.9-208.82,63.47-250.13,161.9-2.01,3.76-5.32,3.41-8.7,1.62-5.19-2.76-15.22-13.01-20.87-17.23-103.26-77.36-221.67-108.26-348.1-69.74-51.5,15.67-97.84,43.29-140.35,75.71-6.13,2.34-6.75.81-7.17-4.93-.62-8.34-.91-24.86,0-32.91.75-6.39,10.94-11.78,16.19-15.58,142.17-102.12,322.66-102.48,468.13-6.98,7.01,4.61,18.08,14.77,24.47,17.88,1.36.68,2.6,1.3,4.19,1.07,33.85-64.8,90.67-124.97,162.71-145.7,41.02-11.81,101.25-8.7,140.84,7.43,63.54,25.93,112.67,82.2,143.01,142.43l.03-.03Z"/>
  <path class="cls-2" d="M1030.09,233.22l27.03,79.44,27.16-77.69.84-1.27c1.69-1.14,36.57-1.04,40.89-.55,1.17.13,2.34,0,3.15,1.1l26.74,77.04,2.37,1.36,27-79.44h41.31c.84,0,1.98,2.56,1.66,3.67l-46.11,125.55c-.81,1.07-1.95.97-3.12,1.1-8.83,1.07-34.69,1.04-43.55,0-1.17-.13-2.34,0-3.15-1.1l-25.41-72.04-25.9,72.59h-47.74l-46.6-125.07c-.39-1.3.49-4.74,1.66-4.74h41.83l-.07.03Z"/>
  <path class="cls-1" d="M962.3,187.66v111.21h25.41v36.02h-23.82s-1.59,1.46-1.59,1.59v27h-43.94s-1.59-1.46-1.59-1.59v-25.96h-116.98c-6.39-1.23-2.4-11.65-4.77-16.42.81-8.21-.71-19.76,4.22-26.48l107.48-105.4h55.59v.03ZM916.77,237.44l-61.43,61.43h61.43v-61.43Z"/>
  <path class="cls-2" d="M1371.11,165.95c.62-3.83,4.19-2.99,7.14-1.82l34.43,22.42c.62.52,1.85,2.14,1.85,2.69v43.94c34.72,0,79.37-3.86,94.76,34.98,3.96,9.99,3.76,41.86,2.73,53.51-1.53,16.81-24.73,41.8-41.86,41.8h-97.45s-1.59-1.46-1.59-1.59v-195.94h0ZM1414.53,267.1v65.13c0,.75,1.75,1.43,2.66,1.59,6.98,1.27,31.8-1.2,38.88-3.47,21.94-7.04,19.7-57.47-7.4-61.92-2.3-.39-9.64-1.33-11.39-1.33h-22.78.03Z"/>
  <path class="cls-2" d="M141.52,170.72v191.17s-1.46,1.59-1.59,1.59H40.37c-.88,0-12.2-5.19-13.95-6.17-13.34-7.46-24.6-23.4-25.8-38.78-1.01-12.95-1.36-40.27,3.54-51.63,16.23-37.71,59.61-33.78,93.94-33.68v-29.14c0-2.63,5.39-7.59,7.4-9.54,4.09-3.93,26.61-22.72,30.44-23.56,1.85-.42,3.73-.26,5.58-.26ZM73.21,267.1c-6.78,1.59-12.07,1.07-18.2,5.09-14.12,9.22-16.52,37.77-7.14,50.98,8.76,12.3,35.11,9.51,48.64,9.61.88.03,2.66-1.01,2.66-1.59v-62.5s-1.46-1.59-1.59-1.59c0,0-24.37,0-24.37,0Z"/>
  <path class="cls-2" d="M586.88,363.48c-28.1-4.67-31.67-57.47-9.74-71.16,21.94-13.69,62.47-7.76,87.58-9.31.29-15.28-17.88-15.97-29.3-16.55-18.59-.94-42.38,1.75-60.23-.36-1.07-.13-3.67-.49-3.67-1.65v-30.18c1.95-.49,3.73-.94,5.78-1.1,22.78-1.78,81.55-2.27,101.99,4.02,23.66,7.27,29.79,26.74,31.02,49.49,1.04,19.11,2.14,54.94,0,73.18-.13,1.07-.49,3.67-1.65,3.67h-121.79v-.03ZM665.76,314.77h-45.01c-.84,0-7.24,1.69-8.34,2.24-4.71,2.37-6.65,8.5-3.89,13.17.81,1.4,6.78,4.71,8.02,4.71h47.67s1.59-1.46,1.59-1.59v-18.53h-.03Z"/>
  <path class="cls-2" d="M1355.24,263.4c-.1.58-1.2,2.37-1.78,2.73-4.48,2.79-48.42.19-58.09.94-10.35.81-22.42,4.54-21.68,16.97l79.8.16c1.3.42,1.56,1.23,1.78,2.47.62,3.25.39,24.34-.49,27.06-.26.81-1.72,3.12-2.17,3.12h-78.89c-.52,5.42,2.11,10.12,6.65,12.92,13.4,8.24,53.9,1.91,71.23,3.96,1.07.13,3.67.49,3.67,1.65v26.48s-1.46,1.59-1.59,1.59h-86.84c-1.75,0-13.08-5.55-15.28-6.98-39.33-25.12-34.5-103.42,13.47-118.77,17.78-5.68,67.59-6.81,86.61-4.58,1.07.13,3.67.49,3.67,1.65,0,7.72,1.23,21.84,0,28.59l-.06.03Z"/>
  <path class="cls-2" d="M287.68,266.03c-2.04,2.43-54.19.16-62.73,1.33-8.63,1.17-18.37,5.09-18.82,15.09-.1,2.21,0,1.36,1.59,1.59h79.99v30.18c0,.19-2.47,2.66-2.66,2.66h-78.89c-.52,5.42,2.11,10.12,6.65,12.92,13.24,8.15,54.03,1.95,71.23,3.96,1.07.13,3.67.49,3.67,1.65v26.48s-1.46,1.59-1.59,1.59h-85.8c-11.97,0-29.11-16.87-34.27-27.16-16.61-33-8.02-85.31,30.6-98.29,17.78-5.97,68.24-7.11,87.39-4.87,1.07.13,3.67.49,3.67,1.65v31.25l-.03-.03Z"/>
  <path class="cls-2" d="M347,363.48h-41.83s-1.59-1.46-1.59-1.59v-127.08c0-.88,2.56-1.88,3.67-1.65,30.41,3.28,90.02-8.02,115.01,11.16,14.21,10.9,12.82,24.66,13.69,40.3,1.2,21.39,3.6,54.48,1.17,75.22-.13,1.07-.49,3.67-1.65,3.67h-40.24s-1.59-1.46-1.59-1.59v-80.48c0-5.58-7.66-13.24-13.24-13.24h-31.77s-1.59,1.46-1.59,1.59v93.72l-.03-.03Z"/>
  <path class="cls-2" d="M515.39,187.66v45.53h37.61s1.59,1.46,1.59,1.59v28.59s-1.46,1.59-1.59,1.59h-36.02s-1.59,1.46-1.59,1.59v50.85c0,1.72,2.63,9.15,3.86,10.84,3.7,5.06,15.06,6.1,21.03,6.62,2.53.23,14.28-.94,14.28,1.59v27h-58.77c-2.08,0-11.91-7.4-13.79-9.51-16.06-18.27-6.17-61.69-8.92-85.31-.13-1.07-.49-3.67-1.65-3.67h-23.82c-1.72-10.06-1.72-21.71,0-31.77h25.41v-45.53h42.38Z"/>
  <path class="cls-2" d="M734.62,363.48v-175.82h42.9s1.59,1.46,1.59,1.59v172.64s-1.46,1.59-1.59,1.59h-42.9Z"/>
</svg>