<svg width="1255" height="119" viewBox="0 0 1255 119" fill="none" xmlns="http://www.w3.org/2000/svg">
<g clip-path="url(#clip0_686_337)">
<path d="M1007.92 33.2499C1010.08 34.9824 1012.24 36.7149 1014.46 38.4999C1016.76 35.0349 1019.06 31.5699 1021.43 27.9999C1032.17 27.1018 1039.6 26.6198 1049.32 31.4999C1052.29 40.2636 1052.29 40.2636 1054.98 50.9687C1056.35 56.2812 1056.35 56.2812 1057.74 61.7011C1058.41 64.4397 1059.08 67.1783 1059.78 69.9999C1062.08 69.9999 1064.38 69.9999 1066.75 69.9999C1067.47 67.5546 1068.18 65.1092 1068.92 62.5898C1069.85 59.4045 1070.79 56.2192 1071.76 52.9374C1072.69 49.7702 1073.62 46.603 1074.58 43.3398C1077.21 34.9999 1077.21 34.9999 1080.69 27.9999C1092.46 27.5624 1092.46 27.5624 1105.1 27.9999C1117.22 40.1741 1120.44 57.4535 1126.01 73.4999C1130.62 58.4849 1135.22 43.4699 1139.96 27.9999C1150.31 27.9999 1160.67 27.9999 1171.33 27.9999C1171.33 30.3099 1171.33 32.6199 1171.33 34.9999C1173.54 33.8539 1175.75 32.708 1178.02 31.5273C1192.62 26.7349 1205.99 27.2484 1221.23 27.5624C1224.14 27.594 1227.06 27.6256 1230.06 27.6581C1237.21 27.7402 1244.36 27.8657 1251.51 27.9999C1251.51 36.0849 1251.51 44.1699 1251.51 52.4999C1234.26 53.6549 1217 54.8099 1199.22 55.9999C1199.22 57.1549 1199.22 58.3099 1199.22 59.4999C1202.37 59.6308 1205.52 59.7616 1208.77 59.8964C1214.94 60.2415 1214.94 60.2415 1221.23 60.5937C1227.36 60.8982 1227.36 60.8982 1233.61 61.2089C1244.54 62.9999 1244.54 62.9999 1251.13 67.4296C1256 75.0721 1256.51 79.9891 1256.53 89.0312C1256.59 91.6976 1256.66 94.364 1256.73 97.1112C1254.14 108.914 1251.23 112.318 1241.06 119C1228.52 120.711 1216.2 120.314 1203.58 119.875C1198.44 119.78 1198.44 119.78 1193.19 119.684C1184.74 119.519 1176.3 119.289 1167.85 119C1167.85 112.07 1167.85 105.14 1167.85 97.9999C1197.18 96.2674 1197.18 96.2674 1227.11 94.4999C1225.39 91.0349 1225.39 91.0349 1223.63 87.4999C1212.12 86.2429 1200.68 85.9439 1189.12 85.5448C1178.31 83.9999 1178.31 83.9999 1171.85 79.9394C1166.36 71.1002 1165.5 62.7513 1164.36 52.4999C1163.18 56.4612 1162.01 60.4225 1160.79 64.5038C1159.22 69.6904 1157.65 74.8766 1156.08 80.0624C1155.31 82.6747 1154.54 85.287 1153.74 87.9784C1147.72 107.707 1147.72 107.707 1139.96 115.5C1129.44 116.453 1119.17 115.804 1108.58 115.5C1103.98 101.64 1099.38 87.7799 1094.64 73.4999C1092.99 78.4809 1091.33 83.4618 1089.63 88.5937C1086.65 97.5624 1083.67 106.531 1080.69 115.5C1069.19 115.5 1057.69 115.5 1045.83 115.5C1041.23 103.95 1036.63 92.3999 1031.89 80.4999C1029.95 84.9034 1028.01 89.3068 1026.01 93.8437C1020.09 107.266 1013.83 112.823 1000.51 119C990.274 120.394 990.274 120.394 979.598 120.312C976.075 120.339 972.551 120.367 968.921 120.394C953.927 118.352 944.679 112.536 934.932 101.062C927.43 82.8279 928.563 66.2154 934.714 47.6874C951.579 23.982 982.833 21.1588 1007.92 33.2499ZM962.385 58.1874C957.356 69.4739 958.687 75.7706 962.167 87.4999C966.025 94.5867 966.025 94.5867 972.625 97.9999C984.276 97.1441 988.681 95.8809 997.028 87.4999C998.128 72.3224 998.593 65.3571 990.056 52.4999C977.995 50.6964 971.905 50.1712 962.385 58.1874ZM1024.92 55.9999C1028.4 62.9999 1028.4 62.9999 1028.4 62.9999L1024.92 55.9999Z" fill="white"/>
<path d="M62.7507 0C71.954 0 81.1573 0 90.6396 0C91.79 17.325 92.9404 34.65 94.1257 52.5C98.7273 46.725 103.329 40.95 108.07 35C119.609 29.2076 132.442 31.1471 145.11 31.2813C147.905 31.297 150.7 31.3128 153.58 31.3291C160.489 31.3704 167.398 31.4332 174.306 31.5C174.306 37.275 174.306 43.05 174.306 49C163.461 54.4441 152.48 52.5602 140.535 52.2813C132.376 51.9318 132.376 51.9318 125.501 56C125.501 58.31 125.501 60.62 125.501 63C149.659 64.7325 149.659 64.7325 174.306 66.5C172.581 75.1625 172.581 75.1625 170.82 84C154.714 84 138.608 84 122.015 84C124.315 87.465 126.616 90.93 128.987 94.5C139.048 96.5468 139.048 96.5468 150.339 96.9063C154.159 97.1364 157.979 97.3665 161.914 97.6035C164.853 97.7344 167.792 97.8652 170.82 98C172.546 106.663 172.546 106.663 174.306 115.5C166.616 116.378 158.915 117.162 151.211 117.906C146.924 118.353 142.637 118.8 138.22 119.26C124.009 118.97 116.549 115.991 104.584 108.5C98.0475 100.844 98.0475 100.844 94.1257 94.5C92.9753 102.585 91.8248 110.67 90.6396 119C80.6134 119.38 70.6017 119.656 60.5719 119.875C57.7542 119.992 54.9366 120.11 52.0336 120.23C32.8998 120.543 22.1038 117.913 6.97289 105C-1.59473 90.9244 -1.94902 75.6017 0.00067197 59.5C4.69592 44.8036 8.11079 39.9145 21.3531 31.9375C36.0923 26.519 50.7543 27.0483 66.2368 28C65.0864 18.76 63.936 9.52 62.7507 0ZM35.2975 56.2188C29.2152 66.7356 30.3007 75.6284 31.3757 87.5C37.516 95.1416 37.516 95.1416 45.1295 95.1836C55.6831 94.8418 55.6831 94.8418 66.2368 94.5C66.3305 88.1565 66.3983 81.8127 66.4547 75.4688C66.4951 71.9361 66.5356 68.4034 66.5772 64.7637C67.2343 56.2093 67.2343 56.2093 62.7507 52.5C48.4287 51.231 48.4287 51.231 35.2975 56.2188Z" fill="white"/>
<path d="M561.264 27.9991C570.467 27.9991 579.67 27.9991 589.153 27.9991C591.499 33.6044 593.818 39.2212 596.125 44.8429C597.419 47.9695 598.713 51.0961 600.047 54.3175C603.097 62.9991 603.097 62.9991 603.097 73.4991C605.398 73.4991 607.699 73.4991 610.069 73.4991C610.492 71.3876 610.914 69.2761 611.349 67.1007C611.933 64.3034 612.518 61.5061 613.12 58.6241C613.686 55.8629 614.252 53.1018 614.835 50.2569C617.012 42.11 619.999 35.383 624.014 27.9991C633.217 27.9991 642.42 27.9991 651.903 27.9991C654.249 33.6044 656.568 39.2212 658.875 44.8429C660.169 47.9695 661.463 51.0961 662.797 54.3175C665.847 62.9991 665.847 62.9991 665.847 73.4991C668.148 73.4991 670.449 73.4991 672.819 73.4991C673.453 70.3319 673.453 70.3319 674.099 67.1007C674.683 64.3034 675.268 61.5061 675.87 58.6241C676.436 55.8629 677.002 53.1018 677.585 50.2569C679.762 42.11 682.749 35.383 686.764 27.9991C705.222 27.674 720.377 28.8202 739.055 31.4991C739.055 59.2191 739.055 86.9391 739.055 115.499C731.002 115.499 722.95 115.499 714.653 115.499C713.502 93.5541 712.352 71.6091 711.166 48.9991C703.114 72.0991 695.061 95.1991 686.764 118.999C675.26 118.999 663.755 118.999 651.903 118.999C647.301 105.139 642.699 91.2791 637.958 76.9991C633.356 90.8591 628.755 104.719 624.014 118.999C612.51 118.999 601.005 118.999 589.153 118.999C584.477 106.467 579.833 93.9248 575.208 81.3741C573.878 77.8189 572.548 74.2636 571.177 70.6007C569.919 67.1718 568.661 63.7429 567.364 60.21C565.612 55.4812 565.612 55.4812 563.824 50.6568C561.264 41.9991 561.264 41.9991 561.264 27.9991Z" fill="white"/>
<path d="M292.834 -0.4375C303.293 0 303.293 0 306.779 3.5C306.921 11.6654 306.927 19.8347 306.779 28C310.158 27.9278 313.537 27.8556 317.019 27.7812C327.695 28 327.695 28 331.181 31.5C331.324 38.4985 331.33 45.5016 331.181 52.5C323.129 52.5 315.076 52.5 306.779 52.5C307.929 66.36 309.079 80.22 310.265 94.5C316.017 95.655 321.769 96.81 327.695 98C328.63 94.1741 329.565 90.3481 330.528 86.4062C335.927 69.5747 335.927 69.5747 345.126 63C356.061 61.209 356.061 61.209 368.439 60.5938C374.607 60.2486 374.607 60.2486 380.899 59.8965C384.05 59.7656 387.2 59.6348 390.445 59.5C383.728 52.7555 371.524 54.7582 362.556 54.25C338.541 52.8889 338.541 52.8889 334.668 49C334.232 40.25 334.232 40.25 334.668 31.5C341.916 24.2231 356.747 27.1914 366.696 27.125C369.332 27.0528 371.967 26.9806 374.683 26.9062C391.673 26.7879 403.899 28.4926 418.334 38.5C421.783 48.2766 422.234 57.341 422.161 67.6484C422.15 70.4457 422.138 73.243 422.127 76.125C422.083 80.4562 422.083 80.4562 422.038 84.875C422.022 87.8166 422.007 90.7583 421.991 93.7891C421.95 101.026 421.887 108.263 421.82 115.5C409.26 116.391 396.696 117.16 384.127 117.906C380.556 118.161 376.986 118.416 373.308 118.679C369.881 118.87 366.454 119.062 362.924 119.26C359.766 119.461 356.607 119.663 353.353 119.871C345.126 119 345.126 119 338.784 113.734C337.426 112.007 336.067 110.279 334.668 108.5C333.517 110.81 332.367 113.12 331.181 115.5C322.453 116.949 322.453 116.949 311.79 117.688C308.262 117.949 304.735 118.211 301.1 118.48C298.372 118.652 295.645 118.823 292.834 119C292.834 116.69 292.834 114.38 292.834 112C290.533 112 288.233 112 285.862 112C277.177 98.9213 278.17 91.8942 278.454 76.3438C278.517 71.8907 278.58 67.4376 278.645 62.8496C278.726 59.4342 278.806 56.0189 278.89 52.5C274.288 52.5 269.686 52.5 264.945 52.5C264.945 45.57 264.945 38.64 264.945 31.5C269.547 30.345 274.149 29.19 278.89 28C278.818 24.0297 278.746 20.0594 278.672 15.9688C278.948 0.143379 278.948 0.14338 292.834 -0.4375ZM362.556 84C362.556 88.62 362.556 93.24 362.556 98C372.91 98 383.264 98 393.931 98C393.931 93.38 393.931 88.76 393.931 84C383.578 84 373.224 84 362.556 84Z" fill="white"/>
<path d="M524.468 -1.49023C527.551 -1.35939 530.634 -1.22855 533.81 -1.09375C536.911 -1.00803 540.012 -0.922305 543.206 -0.833984C550.805 0 550.805 0 554.291 3.5C554.593 8.71052 554.664 13.9351 554.631 19.1543C554.62 22.3012 554.609 25.4481 554.597 28.6904C554.568 31.9998 554.539 35.3091 554.509 38.7188C554.493 42.0416 554.477 45.3645 554.461 48.7881C554.42 57.0256 554.363 65.2627 554.291 73.5C557.742 73.5 561.194 73.5 564.749 73.5C564.749 80.43 564.749 87.36 564.749 94.5C561.298 95.655 557.847 96.81 554.291 98C554.363 100.815 554.435 103.631 554.509 106.531C554.291 115.5 554.291 115.5 550.805 119C538.604 119.438 538.604 119.438 526.402 119C524.677 117.267 524.677 117.267 522.916 115.5C522.916 109.725 522.916 103.95 522.916 98C502.209 98 481.501 98 460.166 98C460.166 66.5038 460.166 66.5038 469.712 55.5078C471.709 53.1346 473.707 50.7615 475.765 48.3164C477.879 45.9432 479.994 43.5701 482.172 41.125C486.299 36.2949 490.425 31.4642 494.551 26.6328C496.394 24.5382 498.238 22.4437 500.138 20.2856C505.711 13.9361 505.711 13.9361 510.865 6.30359C515.944 0 515.944 0 524.468 -1.49023ZM519.43 38.5C515.17 43.5775 511.052 48.7766 507.011 54.0312C504.777 56.9142 502.544 59.7972 500.243 62.7676C494.686 68.9843 494.686 68.9843 495.027 73.5C504.23 73.5 513.434 73.5 522.916 73.5C522.916 61.95 522.916 50.4 522.916 38.5C521.766 38.5 520.615 38.5 519.43 38.5Z" fill="white"/>
<path d="M913.361 -0.4375C923.819 0 923.819 0 927.305 3.5C927.613 11.8149 927.707 20.0273 927.646 28.3418C927.641 30.8228 927.636 33.3038 927.631 35.86C927.611 43.8131 927.567 51.7658 927.523 59.7188C927.506 65.0986 927.49 70.4785 927.475 75.8584C927.437 89.0724 927.377 102.286 927.305 115.5C917.066 116.181 906.826 116.833 896.584 117.469C893.679 117.665 890.773 117.861 887.78 118.063C884.983 118.233 882.185 118.402 879.303 118.576C876.729 118.741 874.155 118.906 871.503 119.076C864.555 119 864.555 119 854.097 115.5C838.526 98.4126 834.759 87.1822 835.373 64.1621C837.31 51.9364 841.017 44.3686 850.175 36.0938C866.051 26.2492 881.221 27.6955 899.416 28C899.309 22.0445 899.309 22.0445 899.198 15.9688C899.475 0.143379 899.475 0.14338 913.361 -0.4375ZM876.103 52.7188C867.14 58.9813 867.14 58.9813 864.991 70C863.927 80.6814 863.927 80.6814 868.041 91C878.349 96.1741 888.06 94.7111 899.416 94.5C899.416 80.64 899.416 66.78 899.416 52.5C886.071 47.7069 886.071 47.7069 876.103 52.7188Z" fill="white"/>
<path d="M746.027 28.0004C755.446 27.856 764.865 27.7117 774.57 27.5629C777.505 27.4992 780.44 27.4355 783.465 27.3698C798.074 27.2617 809.543 27.8737 822.722 35.0004C831.511 43.8249 830.717 47.2938 831.137 59.5278C831.272 62.9792 831.407 66.4307 831.546 69.9867C831.654 73.6006 831.762 77.2145 831.873 80.9379C832.008 84.5789 832.142 88.2198 832.281 91.9711C832.611 100.98 832.909 109.989 833.18 119C823.977 119 814.773 119 805.291 119C805.08 114.746 804.869 110.491 804.651 106.108C804.357 100.562 804.062 95.0153 803.766 89.4692C803.629 86.6606 803.492 83.8521 803.351 80.9584C803.878 67.367 803.878 67.367 798.319 56.0004C790.266 54.8454 782.213 53.6904 773.916 52.5004C773.916 74.4454 773.916 96.3904 773.916 119C764.713 119 755.51 119 746.027 119C746.027 88.9704 746.027 58.9404 746.027 28.0004Z" fill="white"/>
<path d="M213.329 27.1133C230.955 27.378 243.167 28.9435 257.973 38.4994C261.255 48.3838 261.868 54.3515 261.799 64.5717C261.788 67.5381 261.777 70.5046 261.765 73.5609C261.736 76.6447 261.707 79.7285 261.677 82.9057C261.661 86.03 261.645 89.1544 261.629 92.3734C261.588 100.082 261.531 107.791 261.459 115.499C252.256 115.499 243.052 115.499 233.57 115.499C232.42 97.0194 231.269 78.5394 230.084 59.4994C222.031 57.1894 213.978 54.8794 205.681 52.4994C205.681 73.2894 205.681 94.0794 205.681 115.499C196.478 115.499 187.274 115.499 177.792 115.499C177.692 101.572 177.629 87.6454 177.574 73.7182C177.545 69.7411 177.516 65.764 177.486 61.6664C177.475 57.8878 177.463 54.1093 177.452 50.2162C177.434 46.7154 177.415 43.2146 177.396 39.6077C178.315 20.7832 198.528 27.1361 213.329 27.1133Z" fill="white"/>
<path d="M428.791 3.5C436.844 3.5 444.897 3.5 453.194 3.5C453.194 40.46 453.194 77.42 453.194 115.5C445.141 115.5 437.088 115.5 428.791 115.5C428.791 78.54 428.791 41.58 428.791 3.5Z" fill="white"/>
<path d="M728.815 3.28125C733.884 3.38953 733.884 3.38953 739.055 3.5C739.055 10.43 739.055 17.36 739.055 24.5C732.153 24.5 725.25 24.5 718.138 24.5C716.806 18.7035 715.65 12.864 714.652 7C718.138 3.5 718.138 3.5 728.815 3.28125Z" fill="white"/>
</g>
<defs>
<clipPath id="clip0_686_337">
<rect width="1255" height="119" fill="white"/>
</clipPath>
</defs>
</svg>
