<?xml version="1.0" encoding="UTF-8"?>
<svg id="Layer_1" data-name="Layer 1" xmlns="http://www.w3.org/2000/svg" viewBox="0 0 790.94 803.14">
  <defs>
    <style>
      .cls-1 {
        fill: #ec2227;
      }
      .cls-2 {
        fill: #ffffff;
      }
    </style>
  </defs>
  <path class="cls-1" d="M46.59,447.88c-65.66-67.34-61.44-175.1,9.6-236.8,31.03-26.94,68.22-37.81,108.75-40.68,17.73-51.53,49.69-96.3,94.56-127.33,108.9-75.28,260.58-49.35,336.8,58.1,15.76,22.2,25.96,45.7,36.49,70.68,65.48,2.33,125.72,43.81,147.95,105.62,38.28,106.34-35.74,214.05-147.13,219.72l-477.02-.08c-42.68-2.54-80.41-18.87-110.02-49.22h0ZM537.74,198.27c9.6-3.62,18.17-9.94,27.64-13.85,4.71-1.94,28.99-8.49,29.35-11C549.07,44.47,390.33-5.95,277.62,73.27c-45.26,31.81-75.52,80.95-85.77,135.35-29.94-3.03-58.54-2.12-85.9,11.46-112.63,55.87-83.46,222,38.72,240.66,166.2,2.74,333.07,2.8,499.27-.03,109.96-13.87,150.93-152.43,65.86-223.96-59.55-50.1-150.83-34.55-190.19,31.83,7.04,46.17,3.29,172.7-69.51,159.96-52.35-9.16-28.52-73.5-33.26-108.62-2.59-19.23-24.92-18.89-28.23-4.35-2.38,10.46-.52,38.61-.39,51.06.08,7.32,2.36,14.18,1.55,22.57-1.81,18.79-14.18,33.85-32.53,38.41-59.65,14.8-72.9-65.53-74.69-107.76-.91-21.53,3.39-43.56,1.4-64.78-2.25-23.81-17.65-46.53-19.49-72.59-4.11-58.18,38.66-107.01,98.76-100.28,12.29,1.37,28,10.46,39.41,10.4,10.82-.05,28.31-9.32,40.76-10.53,55.72-5.46,100.96,40.42,97.31,95.81-.23,3.52-4.19,19.05-2.98,20.39h0ZM452.05,391.1c17.68,9.42,25.21-23.24,27.87-35.56,8.41-39-.36-66.38,1.97-102.17,2.74-41.9,50.83-100.49-7.51-129.89-34.45-17.37-53.31,12.71-86.15,4.63-10.38-2.54-18.06-8.49-29.58-9.68-31.52-3.23-55.85,19.1-58,50.31-2.51,36.62,23.5,58.85,21.17,96.64-1.89,30.75-6,55.49.72,86.85,2.48,11.57,14.78,57.04,30.69,35.09-.93-30.85-11.36-71.79,8.75-98.42,24.15-31.96,73.47-25.75,86.26,13.12,5.38,16.41,3.83,42.31,3.49,60.02-.13,6.37-4.4,24.33.28,29.01l.03.05Z"/>
  <path class="cls-2" d="M33.57,642.03l-1.09,53.96c-2.98,6.21-18.63,3.23-24.56,1.89v-147.18l2.25-2.25h55.85c2.8,0,13.98,2.72,17.31,3.8,36.93,12.03,36.85,69.46,2.61,84.03-3.31,1.42-18.56,5.72-21.43,5.72h-30.95v.03ZM33.57,619.39h32.45c.52,0,8.72-3.29,9.7-3.88,14.13-8.57,13.64-30.31.85-39.88-1.11-.85-7.09-4.53-7.53-4.53h-35.48c-2.67,16.15,1.09,31.96,0,48.29Z"/>
  <path class="cls-2" d="M356.58,632.97c3.55.91,2.54-.83,3.47-1.92,12.55-14.6,23.27-30.85,36.72-44.67,3.26-2.77,24.15-2.56,24.82.72.44,3.96-1.92,6.55-4.04,9.5-3.78,5.28-29.19,32.63-29.27,35.58l36.54,58.57,1.11,7.07c-6.37,1.73-19.9,2.61-25.54-.75-2.07-1.24-22.08-35.43-25.49-40.97-.96-1.55-1.68-3.18-1.76-5.02-1.58-1.22-15.76,15.92-16.28,17.68-1.99,6.6,1.76,22.88-1.04,27.64-2.59,4.37-25.88,5.82-25-3.7,3.03-48.11-3.73-100.49,0-148.08.23-2.9.88-5.46,1.58-8.23h21.89l2.25,2.25v94.33h.03Z"/>
  <path class="cls-2" d="M610.18,632.97c2.92.7,2.9-1.06,4.24-2.54,12.19-13.33,22.75-28.78,34.21-42.78,5.25-3.42,27.38-6.63,26.48,2.2-.67,6.83-33.38,38.38-33.02,42.11l38.82,63.43c-.98,5.02-22,4.89-25.91,2.56-4.74-2.82-25.8-46.76-28.99-46.84-2.33,2.28-15.84,17.6-15.84,18.84v27.92c-7.82,2.28-16.36,2.28-24.15,0v-159.24c5.46-3.7,18.87-3.65,24.15,0v94.33Z"/>
  <path class="cls-2" d="M300.73,697.88c-8.88,2.17-22.39,4.84-23.42-7.56-25.57,18.63-68.09,13.59-67.18-24.82.57-24.92,25.88-32.51,45.6-37.53,11.15-2.85,28.13-.52,15.22-17.26-5.05-6.55-15.63-5.85-23.42-4.53-7.79,1.32-13.48,7.71-19.18,9.58-6.73,2.23-9.99-10.22-13.04-15.24-.23-3.6,5.59-5.93,8.44-7.53,21.89-12.5,59.06-17.52,71.71,9.83.88,1.92,5.28,14.83,5.28,15.84v79.24-.03ZM275.08,645.06c-14.39-1.09-45.08,7.61-38.56,27.25,5.41,16.3,38.56.05,38.56-5.38v-21.89.03Z"/>
  <path class="cls-2" d="M781.86,697.52c-2.74,2.74-18.74,2.67-20.47.05-1.04-1.55.44-5.69-2.59-7.25-29.66,21.74-74.04,9.39-64.96-33.28,4.76-22.28,43.43-30.82,62.73-31.6.83-31.31-31.86-18.97-48.84-9.32-19.88-16.74-4.76-24.38,13.46-29.84,30.56-9.16,57.5-.83,61.02,33.88,2.1,20.7.39,41.49-.13,61.88-.13,4.74,3.42,11.85-.23,15.48ZM758.11,645.03c-12.89-2.38-51.68,10.56-38.46,28.65,8.93,12.24,37.03,1.81,38.46-11.26.6-5.54-.41-11.75,0-17.39h0Z"/>
  <path class="cls-2" d="M478.86,607.33c-2.59,9.89.13,18.87.13,27.92,0,3.96-1.92,7.74-1.76,12.09.26,7.66,2.48,16.87,2.33,24.97,4.19,13.51,20.94,2.25,25.05,5.1,7.66,16.41,7.22,21.45-11.54,23.34-55.87,5.62-36.13-56.52-40.06-90.94l-2.25-2.25-12.4-.41c-4.53-15.29-3.11-23.42,14.73-21.09,2.82-7.45.72-15.48,2.04-22.85,2.12-11.85,12.76-6.11,22.05-6.96,3.99,9.29-2.25,18.45,1.73,28.47h23.4c.49,0,2.3,1.99,3.78,1.5v21.14h-27.17l-.05-.03Z"/>
  <path class="cls-2" d="M194.88,607.12c-5.56,1.66-11.02-2.12-16.41-.67-9.14,2.46-18.56,14.93-19.62,24.28-2.3,20.19,1.97,44-.31,64.6-1.86,6.34-25.83,6.81-25.44-2.64l.83-104.99c2.56-5.31,19.2-3.13,21.2-.05,1.55,2.38-.8,9.21,2.92,7.61,1.71-.75,6.19-5.51,9.37-7.25,7.84-4.24,17.39-7.66,26.11-4.06,10.09,4.17,2.82,14.83,1.32,23.19h.03Z"/>
  <path class="cls-2" d="M534.27,585.02c5.33-1.16,19.07-2.3,20.01,4.99l-1.32,107.27c-2.48,3.13-23.96,4.84-24.25-3.21l.7-106.39c1.27-1.42,3.05-2.28,4.89-2.67h-.03Z"/>
  <path class="cls-2" d="M529.12,566.1c-14.6-16.54,14.83-36.41,25.88-19.1,11.41,17.86-14.23,32.3-25.88,19.1Z"/>
  <path class="cls-1" d="M273.09,566.1c-11.65,12.58-36.1-2.07-25.21-18.43,12.19-18.27,39.96,2.48,25.21,18.43Z"/>
  <path class="cls-2" d="M607.17,757.2l.47,1.71-.72.8h-12.03c-.72.44-.7,1.01-.78,1.73-.83,7.09-.54,22.77,0,30.15.31,4.3,1.68,7.89,6.42,8.64,2.85.44,4.84-1.01,7.66-.88l-.49,2.25c-7.66,2.2-15.22,1.19-16.05-8.05-.83-9.24-.23-19.72,0-28.55.05-1.81.05-3.55-.52-5.31h-16.8l-.75.75v41.38c-1.24,0-2.85.36-3-1.24l-.08-40.06-.75-.75-4.97-.54-.23-1.53,5.8-.98c-.44-11.57.28-29.63,16.77-21.35.16.7-.54,1.19-1.19,1.22-2.51.13-5.59-1.42-8.51.08-1.94,1.01-3.83,4.63-3.83,6.7v13.04l.75.75h16.56l.75-.75v-12.03c0-.93,2.51-.93,2.51,0v12.03l.75.75h12.29l-.03.03Z"/>
  <path class="cls-2" d="M628.24,798.32l12.53-40.89,3.57.05,12.22,40.35,11.8-39.75,3-.88-12.66,42.78c-.54,1.92-2.25,3.39-3.93,1.63l-12.01-40.92-1.04.7-11.83,40.48c-1.09.6-2.2.52-3.16-.31l-13.04-44.38c.98-.05,2.02-.23,2.43.83l12.14,40.29-.03.03Z"/>
  <path class="cls-2" d="M273.12,734.63l2.43.08c1.29,1.97,0,3.86.03,5.69.31,18.76.41,37.45,0,56.19-.05,2.15,2.12,6.65-2.25,4.79l-.49-5.05c-3.83,2.15-7.25,4.94-11.67,5.9-16.46,3.57-22.8-11.85-21.69-25.7,1.37-17.24,17.91-26.5,32.35-15.79l1.27-.78v-25.34h.03ZM256.94,758.83c-21.35,2.79-18.87,48.4,5.75,40.37,3.18-1.04,9.6-4.58,9.94-8.1.8-8.18-.44-18.04-.28-26.35-3.8-4.22-9.68-6.65-15.42-5.9l.03-.03Z"/>
  <path class="cls-2" d="M434.12,801.84c-3.34.16-2.43-3.26-2.51-5.51-1.84-.05-2.9,1.76-4.55,2.72-9.5,5.54-25.44,5.67-24.74-8.8.65-13.64,19.23-14.42,29.22-16.56.21-14.42-8.28-18.01-20.83-12.55-1.58.67-6.11,4.43-5.72.85.13-1.29,4.89-3.26,6.29-3.78,11.36-4.22,21.69-2.41,22.83,11.31.62,7.38.13,14.8,0,22.05-.08,3.42.1,6.88,0,10.3l.03-.03ZM431.61,776.76c-9.68.1-27.38,2.87-26.11,15.84,1.27,12.97,20.99,6.86,26.11-.52v-15.32Z"/>
  <path class="cls-2" d="M709.5,801.84l-2.28-.47c-.85-1.24.65-4.37-.98-5.54-7.66,8.62-28.86,10.9-28.88-4.79-.03-14.75,18.01-14.13,27.74-16.93,2.61-.75,1.73-3.75,1.27-6.03-2.87-13.54-16.46-10.14-25.13-4.43l-1.29-1.66c7.25-6.16,23.63-9.78,28.08,1.42.36.91,1.48,5.28,1.48,6.03v32.38ZM706.99,792.06v-14.54c0-.13-.96-1.06-1.32-1.14-.54-.1-6.21.8-7.32,1.01-8.57,1.58-21.71,6.52-17.03,17.78,4.09,9.83,20.73,3.16,25.67-3.11h0Z"/>
  <path class="cls-2" d="M537.84,755.8c28.34-2.15,28.55,49.87-.6,46.97-23.76-2.38-23.06-45.16.6-46.97ZM527.59,764.39c-6.88,8.23-6.68,22.15.31,30.2,15.11,17.37,35.4-6.08,26.04-26.04-5.07-10.79-18.35-13.69-26.35-4.17h0Z"/>
  <path class="cls-2" d="M22.21,755.83c11.31-.72,19.75,10.82,20.65,21.2,1.5,17.26-15.4,34.34-31.34,21.79-14.75-11.59-9.68-41.67,10.69-42.99ZM19.68,758.8c-8.59,1.45-13.85,12.84-13.87,20.76-.03,17.86,19.82,29.79,30.75,12.19,8.02-12.89.65-35.92-16.9-32.95h.03Z"/>
  <path class="cls-2" d="M780.23,779.27h-31.86l-.67.83c-.57,13.04,9.68,22.98,22.9,19.38,1.58-.44,6.78-3.8,7.61-2.64,1.63,2.33-5.98,4.89-7.48,5.25-35.87,8.72-33.07-55.18-1.01-45.16,5.12,1.6,10.53,9.32,10.53,14.54v7.76l-.03.03ZM777.72,777.25c1.99-14.54-15.71-26.11-25.8-12.99-2.25,2.92-5.05,9.65-3.05,12.99h28.86Z"/>
  <path class="cls-2" d="M322.76,779.27h-31.86c-2.12,4.24.6,11,3.49,14.54,6.52,8,16.51,8.05,24.82,2.72.98-.18,1.92,1.48,1.48,2.23-20.34,12.14-38.48-5.25-32.79-27.02,3.16-12.01,17.16-21.09,28.05-12.55,2.69,2.1,6.78,8.49,6.78,11.78v8.28l.03.03ZM320.24,777.25c.78-24.56-30.15-24.66-29.61,0h29.61Z"/>
  <path class="cls-2" d="M180.05,779.27l-.67.83c-.18,14.44,10.84,23.94,25.13,18.61.75-.28,6.52-3.99,5.33-.18-.28.96-6.16,3.29-7.45,3.57-21.58,5.15-32.01-18.53-23.19-35.74,6.24-12.14,24.48-14.65,30.62-1.35.41.91,2.07,5.33,2.07,5.95v7.53l-.75.75h-31.11l.03.03ZM180.57,777.25h28.6c1.22,0,.26-5.05,0-6.06-3.36-14.1-21.01-17.57-27.46-3.83-.75,1.58-3.36,9.21-1.16,9.89h.03Z"/>
  <path class="cls-2" d="M53.92,757.2c3.57-1.29,2.33,3.67,2.51,6,.75.75,4.81-3.26,5.85-3.93,6.47-4.09,15.48-5.67,20.45,1.45s3.13,27.67,2.77,36.36c-.1,2.12,1.79,6.63-2.48,3.99v-31.11c0-.98-1.16-4.79-1.6-5.9-2.72-6.7-11.62-6.42-17.08-3.26-1.99,1.14-7.87,5.9-7.87,8.18v32.09c0,.93-2.51.93-2.51,0v-43.89l-.03.03Z"/>
  <path class="cls-2" d="M364.89,801.84h-2.51v-28.83c0-.78-.44-4.37-.62-5.41-2.04-11.78-14.57-10.61-21.95-4.14-.6.52-4.01,4.22-4.01,4.53v33.1c-4.32,2.69-2.41-2.2-2.46-4.5-.31-12.01-.62-24.09-.6-36.1,0-1.11.52-2.15.54-3.26,2.92-.28,2.12,2.59,2.51,4.76.13.7-.47,1.48.75,1.27.88-.16,3.88-3.13,5.1-3.93,6.29-4.04,15.22-5.69,20.13,1.24,1.29,1.84,3.11,6.81,3.11,8.93v32.35Z"/>
  <path class="cls-2" d="M483.42,798.19c-.7-.72-.65-2.41-.62-3.39,3.31.78,5.56,3.13,9.06,4.24,6.68,2.15,18.04,1.27,17.93-8s-14.98-10.58-20.94-15.09c-5.07-3.83-6.65-9.26-2.77-14.73,4.48-6.29,15.45-6.24,21.56-2.56.78.47,3.96,2.85,1.45,3.49-.88.23-6.81-3.16-9.03-3.44-6.91-.91-15.29,3.36-12.37,11.36,2.92,8,24.77,7.09,25.16,19.49.36,11.26-11.31,14.8-20.52,12.5-1.4-.34-8.18-3.13-8.9-3.88h0Z"/>
  <path class="cls-2" d="M165.25,801.84h-2.51v-31.34c0-.39-.67-3.55-.83-4.17-3.67-12.89-20.39-7.66-25.36,1.55l-.85,33.75-2.04.21v-44.64l1.27-.49c1.86,1.42.98,3.83,1.24,5.75.1.7-.26.85.75.75,6.52-6,18.25-11.78,25.03-2.98,1.01,1.32,3.31,6.26,3.31,7.74v33.88Z"/>
  <path class="cls-2" d="M381.94,743.64v12.78l.75.75h12.03c.93,0,.93,2.51,0,2.51h-12.29c-.23.93-.44,1.76-.52,2.74-.47,5.98-.75,28.57.78,33.38,1.35,4.22,4.79,4.17,8.57,4.04,1.99-.08,4.55-1.71,5.23.75-6.55,4.3-15.01,2.54-16.69-5.85l-.39-34.21c-.62-1.86-6.24.05-7.22-1.29l-.23-1.53,7.3-.98c1.6-2.3-2.3-13.17,2.72-13.07l-.03-.03Z"/>
  <path class="cls-2" d="M447.68,735.38c.05-.23.78-.7.98-1.01l1.16.23.85,2.28v61.7c.1,2.2,4.14,1.04,3.88,3.03-.26,2.07-4.66,1.4-5.93-.49-.21-.31-.98-2.3-.98-2.54v-63.2h.03Z"/>
  <path class="cls-2" d="M99.54,734.63l2.04.21.49,1.5c1.29,19.51-1.84,41.49,0,60.71.08.91.28,1.81.62,2.64l3.08.62c1.71,4.4-6.21,2.43-6.21-.75v-64.96l-.03.03Z"/>
  <path class="cls-2" d="M723.04,757.43l1.01-.52c2.48.28.96,7.79,1.76,7.79,2.1-.75,2.43-3.49,4.01-5.02,2.07-1.99,9.68-5.33,12.06-3.03,3.29,3.18-2.07,1.94-3.03,1.99-6.81.26-13.3,8.28-13.3,14.83v28.34h-2.51v-44.38h0Z"/>
  <path class="cls-2" d="M116.6,757.95c.36-1.22,3-.83,3,0v43.14c0,.98-3,.98-3,0v-43.14Z"/>
  <path class="cls-2" d="M116.96,739.73c4.94-1.53,5.82,4.61,2.17,5.72-4.3,1.29-5.2-4.79-2.17-5.72Z"/>
</svg>